<?xml version="1.0" encoding="UTF-8"?>
<svg width="24px" height="24px" viewBox="0 0 24 24" version="1.1" xmlns="http://www.w3.org/2000/svg" xmlns:xlink="http://www.w3.org/1999/xlink">
    <title>ic_basket</title>
    <g id="iOS" stroke="none" stroke-width="1" fill="none" fill-rule="evenodd">
        <g id="Product-page" transform="translate(-86.000000, -1928.000000)" fill="#FFFFFF">
            <g id="Group-10" transform="translate(0.000000, 1912.000000)">
                <g id="Group-3" transform="translate(16.000000, 0.000000)">
                    <g id="ic_basket" transform="translate(70.000000, 16.000000)">
                        <rect id="Rectangle" fill-opacity="0.01" x="0" y="0" width="24" height="24"></rect>
                        <path d="M4.60891907,8.36347453 L19.3910809,8.36347453 C20.1410175,8.35677424 20.8569201,8.67599713 21.3531142,9.23835041 C21.8493083,9.80070368 22.0769073,10.5507827 21.9768818,11.2940489 L20.9425615,19.0514516 C20.7687903,20.3434912 19.6603814,21.3041123 18.3567606,21.2924791 L5.64323943,21.2924791 C4.33961857,21.3041123 3.23120965,20.3434912 3.05743852,19.0514516 L2.02311816,11.2940489 C1.92309269,10.5507827 2.15069173,9.80070368 2.6468858,9.23835041 C3.14307987,8.67599713 3.85898249,8.35677424 4.60891907,8.36347453 Z M8.80653588,7.02747739 L10.1856297,4.26928975 C10.3341564,3.99232484 10.3201645,3.65647256 10.1491151,3.39282153 C9.9780657,3.1291705 9.67707416,2.97951549 9.36362237,3.00226929 C9.05017058,3.02502308 8.77394788,3.21657868 8.64276849,3.50216882 L7.26367467,6.26035645 C7.06929552,6.68353852 7.24620039,7.18459568 7.66319023,7.39192583 C8.08018007,7.59925597 8.58645175,7.43787877 8.80653588,7.02747739 Z M16.3484552,7.41534753 C16.7743201,7.20335228 16.9479159,6.68642258 16.7363253,6.26035645 L15.3572315,3.50216882 C15.2260521,3.21657868 14.9498294,3.02502308 14.6363776,3.00226929 C14.3229258,2.97951549 14.0219343,3.1291705 13.8508849,3.39282153 C13.6798355,3.65647256 13.6658436,3.99232484 13.8143703,4.26928975 L15.1934641,7.02747739 C15.4054594,7.45334231 15.9223891,7.62693811 16.3484552,7.41534753 L16.3484552,7.41534753 Z" id="Shop_basket"></path>
                    </g>
                </g>
            </g>
        </g>
    </g>
</svg>