<?xml version="1.0" encoding="UTF-8"?>
<svg width="24px" height="24px" viewBox="0 0 24 24" version="1.1" xmlns="http://www.w3.org/2000/svg" xmlns:xlink="http://www.w3.org/1999/xlink">
    <title>ic_fav</title>
    <g id="iOS" stroke="none" stroke-width="1" fill="none" fill-rule="evenodd">
        <g id="Home" transform="translate(-142.000000, -608.000000)">
            <g id="Group-13" transform="translate(16.000000, 563.000000)">
                <g id="Group-8" transform="translate(0.000000, 41.000000)">
                    <g id="ic_fav" transform="translate(126.000000, 4.000000)">
                        <rect id="Background" fill="#F4F4F4" x="0" y="0" width="24" height="24" rx="12"></rect>
                        <g id="ic_favorites" transform="translate(4.000000, 4.000000)">
                            <rect id="Rectangle-Copy-2" x="0" y="0" width="16" height="16"></rect>
                            <path d="M8.54757437,2.40817448 C9.20585066,2.10130827 9.78141773,2 10.6569223,2 C12.9532892,2.00906767 14.6666667,3.8684425 14.6666667,6.23326452 C14.6666667,8.02326113 13.6362194,9.72347903 11.7402086,11.3475455 C10.7582887,12.188629 9.50752694,13.019022 8.60575151,13.4637568 L8,13.7624994 L7.39424849,13.4637568 C6.49247306,13.019022 5.24171134,12.188629 4.25979138,11.3475455 C2.36378058,9.72347903 1.33333333,8.02326113 1.33333333,6.23326452 C1.33333333,3.84467173 3.0320827,2 5.34848485,2 C6.19328916,2 6.79738959,2.11070789 7.4675575,2.42638964 C7.6512992,2.51294093 7.82664484,2.61222105 7.99293998,2.72405662 C8.16812371,2.60413745 8.35323672,2.49876814 8.54757437,2.40817448 Z" id="icon" fill="#ABABAB"></path>
                        </g>
                    </g>
                </g>
            </g>
        </g>
    </g>
</svg>