<?xml version="1.0" encoding="UTF-8"?>
<svg width="241px" height="159px" viewBox="0 0 241 159" version="1.1" xmlns="http://www.w3.org/2000/svg" xmlns:xlink="http://www.w3.org/1999/xlink">
    <title>Scene 12</title>
    <defs>
        <linearGradient x1="50%" y1="0%" x2="50%" y2="100%" id="linearGradient-1">
            <stop stop-color="#FFEE7F" offset="0%"></stop>
            <stop stop-color="#F2BF1E" offset="100%"></stop>
        </linearGradient>
        <linearGradient x1="50%" y1="0%" x2="50%" y2="100%" id="linearGradient-2">
            <stop stop-color="#FDA1A2" offset="0%"></stop>
            <stop stop-color="#FA6869" offset="100%"></stop>
        </linearGradient>
        <linearGradient x1="50%" y1="0%" x2="50%" y2="100%" id="linearGradient-3">
            <stop stop-color="#FCFCFF" offset="0%"></stop>
            <stop stop-color="#EBEFFF" offset="100%"></stop>
        </linearGradient>
        <linearGradient x1="50%" y1="0%" x2="50%" y2="100%" id="linearGradient-4">
            <stop stop-color="#C2CEFF" offset="0%"></stop>
            <stop stop-color="#95AAFF" offset="100%"></stop>
        </linearGradient>
        <rect id="path-5" x="0.18707483" y="0" width="42.7210884" height="48.707483" rx="2.09066662"></rect>
        <filter x="-14.0%" y="-8.2%" width="123.4%" height="120.5%" filterUnits="objectBoundingBox" id="filter-7">
            <feOffset dx="-1" dy="1" in="SourceAlpha" result="shadowOffsetOuter1"></feOffset>
            <feGaussianBlur stdDeviation="1.5" in="shadowOffsetOuter1" result="shadowBlurOuter1"></feGaussianBlur>
            <feColorMatrix values="0 0 0 0 0.313899243   0 0 0 0 0.366641974   0 0 0 0 0.451030344  0 0 0 0.26486014 0" type="matrix" in="shadowBlurOuter1"></feColorMatrix>
        </filter>
        <linearGradient x1="50%" y1="0%" x2="50%" y2="100%" id="linearGradient-8">
            <stop stop-color="#59DFC4" offset="0%"></stop>
            <stop stop-color="#2DBC92" offset="100%"></stop>
        </linearGradient>
        <linearGradient x1="50%" y1="0%" x2="50%" y2="100%" id="linearGradient-9">
            <stop stop-color="#59DFC4" offset="0%"></stop>
            <stop stop-color="#2DBC92" offset="100%"></stop>
        </linearGradient>
        <linearGradient x1="50%" y1="0%" x2="50%" y2="100%" id="linearGradient-10">
            <stop stop-color="#59DFC4" offset="0%"></stop>
            <stop stop-color="#2DBC92" offset="100%"></stop>
        </linearGradient>
        <linearGradient x1="50%" y1="0%" x2="50%" y2="100%" id="linearGradient-11">
            <stop stop-color="#59DFC4" offset="0%"></stop>
            <stop stop-color="#2DBC92" offset="100%"></stop>
        </linearGradient>
        <linearGradient x1="50%" y1="0%" x2="50%" y2="100%" id="linearGradient-12">
            <stop stop-color="#59DFC4" offset="0%"></stop>
            <stop stop-color="#2DBC92" offset="100%"></stop>
        </linearGradient>
        <linearGradient x1="50%" y1="0%" x2="50%" y2="100%" id="linearGradient-13">
            <stop stop-color="#A1B2FF" offset="0%"></stop>
            <stop stop-color="#5679D9" offset="100%"></stop>
        </linearGradient>
        <path d="M0.128282157,9.05390933 C-0.325913451,6.13086697 0.425984143,3.84596421 2.38397494,2.19920104 C5.32096113,-0.270943707 8.21437278,-0.236150187 10.2059488,0.284223347 C11.5336662,0.631139036 12.5453891,1.26946494 13.2411176,2.19920104 C11.2456496,2.4155954 9.77811752,2.82506882 8.83852127,3.42762131 C7.42912689,4.33145005 7.27990183,5.56454984 4.16013898,6.42999743 C2.08029708,7.00696249 0.736344809,7.88159979 0.128282157,9.05390933 Z" id="path-14"></path>
        <path d="M6.07037622,23.3377835 C4.35970463,22.2627799 3.58269119,20.8218102 3.73933589,19.0148744 C3.97430295,16.3044706 1.11249281,14.7319737 1.11249281,10.3942218 C1.11249281,6.05646999 1.55460114,4.52180149 1.99145311e-13,1.93344962e-15 C3.0573095,0.889258043 5.23409059,2.56427955 6.53034326,5.02506451 C8.47472227,8.71624196 7.54651464,10.9289989 8.22185406,15.5950428 C8.67208034,18.7057388 7.95492107,21.2866523 6.07037622,23.3377835 Z" id="path-16"></path>
        <path d="M10.1233763,12.3771761 C8.4112438,12.3696062 7.21715223,11.5516223 6.54110157,9.92322456 C5.52702558,7.48062787 4.05733475,7.46881744 3.07876445,4.50652301 C2.42638425,2.53166006 1.40012943,1.30485712 -2.532819e-13,0.826114174 C1.54677749,-0.114766222 3.14748268,-0.251953908 4.80211557,0.414551117 C7.28406489,1.41430865 7.61305998,3.54308623 9.53272228,5.93794962 C10.8124971,7.53452521 11.0093818,9.68093402 10.1233763,12.3771761 Z" id="path-18"></path>
        <path d="M2.75811196,2.62041747 C2.64125999,4.0043555 2.60476843,4.95112397 2.64863729,5.46072287 C2.94231365,8.8721895 3.549327,10.6016895 3.85819664,11.3409613 C4.42531252,12.698339 5.39571843,34.9571079 4.55864133,38.9678931 C4.00058993,41.6417499 3.6793293,43.7328622 3.59485944,45.2412299 C4.44557818,46.1145509 5.74826531,46.3366237 7.50292082,45.9074484 C7.83829552,41.888003 8.40537485,39.1357291 9.20415883,37.6506267 C9.52983938,35.1379394 9.7896364,32.2964722 9.98354987,29.126225 C10.168351,26.1049533 11.604941,22.5800855 11.8642798,19.0626239 C12.0131308,17.0437298 11.5670331,14.9632058 10.8012564,13.1448977 C10.3883422,10.9312471 10.3772632,7.80879043 10.7680194,3.77752781 C11.1587756,-0.253734811 8.48880646,-0.639438258 2.75811196,2.62041747 Z" id="path-20"></path>
        <path d="M15.153275,1.15917034 C13.6609354,3.71623795 12.9195517,6.34365972 12.9291239,9.04143565 C12.9434822,13.0880995 6.98485449,30.630382 4.91768864,35.8007171 C3.40642658,38.3641304 2.49731989,40.4515042 2.19036855,42.0628387 C2.9304086,42.9522258 3.56092846,43.2265302 4.08192813,42.8857517 C4.60292779,42.5449732 6.51475182,40.6153852 9.8174002,37.0969877 C9.94845231,35.8612523 10.1497285,34.9585137 10.4212289,34.3887718 C10.8284795,33.5341591 14.9212633,24.0333645 16.6797187,21.801344 C18.4381742,19.5693236 20.6378259,14.6527821 20.0311305,10.436892 C20.1376438,8.29759508 21.1526928,6.37551737 23.0762776,4.67065887 C23.5548744,4.24648223 24.4752803,3.76463832 24.3887473,3.40661972 C24.2145726,2.68599552 21.1360818,1.93684573 15.153275,1.15917034 Z" id="path-22"></path>
        <path d="M34.1183747,36.8048267 C25.8753072,38.4323822 19.6790524,38.3740202 15.5296103,36.6297408 C11.3801681,34.8854614 6.8596514,34.0281292 1.96806015,34.0577444 C3.48162229,29.5334919 5.53466397,24.198076 8.12718518,18.0514966 C10.7197064,11.9049172 13.5235925,6.47821633 16.5388437,1.771394 L32.1076826,3.40774491 C31.8924626,7.51300655 32.2645895,13.5276179 33.2240633,21.4515789 C34.1835371,29.3755399 34.4816409,34.4932892 34.1183747,36.8048267 Z" id="path-24"></path>
        <path d="M21.694785,16.2856256 C18.4216085,16.2856256 16.3442218,16.2856256 15.4626247,16.2856256 C14.1402292,16.2856256 13.0758715,16.3234433 10.6999203,18.5671774 C8.32396919,20.8109114 0.0572114788,25.9506388 0.0572114788,28.4336646 C0.0572114788,30.9166904 2.15666931,35.8250706 3.92995583,38.6217486 L6.46388397,36.916873 C5.98612765,34.9694504 5.65475652,33.515011 5.46977059,32.5535546 C5.28478466,31.5920982 5.08614072,30.2918072 4.87383876,28.6526815 L13.0128635,24.2143438 C11.9183588,26.1488139 12.0083962,28.3018032 13.2829758,30.6733117 L11.9041572,36.916873 L27.6542916,36.6795542 L27.9943765,31.4961377 C29.5919951,27.7455573 30.6958689,25.8702672 31.3059978,25.8702672 C31.7087482,25.8702672 34.2696039,26.4115423 37.0859019,27.2740487 C40.6692442,28.3714665 44.8429476,29.9333965 46.9687241,29.4515743 C50.4934009,28.6526815 46.3257091,16.4423237 45.1650688,13.0126982 C44.0044285,9.58307263 42.8315974,7.49933301 42.8315974,6.01239556 C43.2384103,5.21839686 43.4728458,4.46502926 43.5349041,3.75229278 C43.6279915,2.68318805 43.829202,1.81838538 43.4490898,1.70106799 C43.0689776,1.58375061 42.7941229,1.86640815 42.7941229,2.4986909 C42.7941229,3.13097365 42.8076935,4.0823217 42.1779083,4.55418962 C42.1462867,1.83483999 42.0311645,0.357957069 41.8325417,0.123540868 C41.5346074,-0.228083432 41.1741214,0.113467985 40.9875713,1.89725071 C40.8632045,3.0864392 40.8010211,4.01130332 40.8010211,4.67184308 C39.5138502,2.47991069 38.5757352,1.1799664 37.9866761,0.772010193 C37.1030875,0.160075887 36.663913,0.775394246 37.584957,1.89725071 C38.5060011,3.01910718 39.792301,4.94007099 39.792301,5.70926431 C38.1132939,5.01765016 36.9963625,5.11869391 36.4415069,6.01239556 C35.6092234,7.35294804 36.2949405,7.79772558 36.6074949,7.47847135 C36.9200494,7.15921712 37.0867792,6.5513091 37.7607258,6.37234228 C38.4346724,6.19337546 40.2868923,7.32202625 39.6783484,8.77970613 C39.0698044,10.237386 37.5636732,9.24449709 36.9322966,8.4104098 C36.30092,7.5763225 35.2097944,8.78480313 36.6074949,9.87423547 C38.0051954,10.9636678 39.1357836,10.9636678 40.3808039,10.9666553 C41.515666,12.6697917 42.2080236,14.4427818 42.4578766,16.2856256 C42.7077297,18.1284694 43.011452,20.6086571 43.3690436,23.7261888 C41.6564749,23.138578 40.4262431,22.6721117 39.6783484,22.3267898 C34.4612871,19.9179408 31.4415136,18.2731228 30.571737,17.9973284 C29.5149296,17.6622289 26.5559455,17.0916613 21.694785,16.2856256 Z" id="path-26"></path>
        <path d="M3.78345669,2.95866672 C4.66799191,5.2846294 4.67016586,7.22368936 3.78997853,8.77584661 C2.9097912,10.3280039 2.34061184,11.1400383 2.08244043,11.2119498 C1.77724611,11.5854784 1.5489918,11.8483238 1.3976775,12.000486 L0.763163073,18.0482834 L1.61022083,18.8124063 L-3.09351939e-14,25.0736354 L17.3087197,25.0736354 L18.0849102,18.0482834 L20.398392,13.2341372 C18.1136648,12.6802474 17.8689112,9.76594138 19.6641312,4.49121908 C21.4593512,-0.78350322 16.165793,-1.29435401 3.78345669,2.95866672 Z" id="path-28"></path>
        <path d="M6.28266267,7.62933626 C6.47993939,7.94075667 6.84678537,8.16410268 7.38320061,8.29937427 C8.45228088,7.22610483 9.1331608,6.64763088 9.42584039,6.56395242 C9.71851998,6.48027395 10.052291,6.3890262 10.4271536,6.29020919 C10.9364973,5.55405423 11.3860215,5.11939653 11.7757261,4.98623606 C12.1654307,4.85307559 12.9211226,4.73294702 14.042802,4.62585034 C14.1601847,5.09494948 13.9774919,5.38221452 13.4947235,5.48764547 C12.7705709,5.6457919 12.1582603,5.67445226 11.9669932,5.93254253 C13.4032141,6.3098795 14.3892339,6.93969715 14.9250527,7.82199547 C14.9427406,8.14149288 14.7810903,8.30407952 14.4401017,8.30975538 C14.4536899,8.69945935 14.2151984,8.82076996 13.7246272,8.67368721 C13.3099859,8.54936972 12.9434507,8.28244807 12.5097268,8.0740168 C12.1740419,7.91269938 11.6750634,7.89900573 11.4909731,7.92858893 L13.3710337,9.214347 C13.1089719,9.5268673 12.7562169,9.58844758 12.3127688,9.39908785 C11.8693207,9.20972812 11.4002947,8.99109133 10.9056909,8.74317748 C10.2015118,8.84664626 9.77882532,8.89838064 9.63763135,8.89838064 C9.42584039,8.89838064 8.50917416,11.2280046 7.38320061,11.1564626 C6.25722706,11.0849206 5.84669437,11.1564626 3.71707564,9.214347 C2.29732982,7.91960328 1.05830461,5.71032799 -1.16006977e-14,2.58652112 L3.71707564,0 C4.27078242,2.66291785 4.68464328,4.40664286 4.95865821,5.23117505 C5.48178855,6.80531484 6.17218669,7.45493922 6.28266267,7.62933626 Z" id="path-30"></path>
        <path d="M2.45470742,0.390421592 C2.47737852,2.03449764 2.3735038,3.16647328 2.14308327,3.78634851 C1.91266273,4.40622374 1.19830164,4.79983691 0,4.96718801 C1.15674868,6.14003767 2.66755883,6.7264625 4.53243044,6.7264625 C6.39730205,6.7264625 8.00982819,5.93475657 9.37000887,4.35134471 C7.9507875,4.21768922 7.12390455,3.75724831 6.88936004,2.97002198 C6.65481553,2.18279565 6.59932459,1.23094092 6.72288721,0.114457773 L2.45470742,0.390421592 Z" id="path-32"></path>
        <path d="M0.0816326531,0 C0.809775005,0.890304109 1.5492607,0.890304109 2.30008974,0 L0.0816326531,0 Z" id="path-34"></path>
        <path d="M22.8193307,6.18703879e-14 C25.3150176,4.63246777 25.8186992,11.5211061 24.3303754,20.6659149 C22.0978896,34.3831282 22.8193307,38.0195298 22.8193307,40.7800276 C22.8193307,43.5405254 23.193658,50.5810035 20.4597694,67.4883952 L13.9940856,67.4883952 C13.5834204,53.242972 13.7012156,44.6696896 14.3474711,41.7685481 C13.7633279,35.3496224 13.3797918,30.4442838 13.1968629,27.0525324 C13.0667381,24.6398394 12.8997588,21.0397291 12.6959252,16.2522016 C10.8883496,30.4219355 9.61605559,38.566464 8.87904313,40.6857871 C9.61605559,48.7359985 9.37385123,57.6702012 8.15243005,67.4883952 L1.49354233,67.4883952 C0.503527716,53.9353278 0.282609031,45.0325386 0.830786272,40.7800276 C1.65305213,34.4012609 -2.4491426,11.9180317 3.60539467,0.680638738 L22.8193307,6.18703879e-14 Z" id="path-36"></path>
        <path d="M7.31201572,22.5573889 C8.57651312,15.764264 9.28666817,11.7673855 9.44248087,10.5667535 C8.70044181,8.64146551 8.4573495,7.05338493 8.71320396,5.8025118 L9.06735896,2.73142672 C9.55328085,2.83284151 9.79624179,3.44089337 9.79624179,4.55558229 C9.79624179,6.22761566 10.1638997,6.02128408 10.4406035,5.8025118 C10.7173074,5.58373952 12.6113816,3.91469334 13.9008102,0.810259464 C14.1746821,0.203541433 14.4692747,-0.0382851189 14.7845879,0.0847798086 C15.0131757,0.18312056 15.1018728,0.377196545 15.0506791,0.667007764 C15.3800142,0.16138278 15.6610244,-0.0567755828 15.8937095,0.0125326761 C16.2427373,0.116495065 16.4151548,0.582394308 16.1576719,1.14791853 C16.4403568,0.907237104 16.6931957,0.862434003 16.9161888,1.01350922 C17.2506784,1.24012205 17.1595285,1.65243407 17.0183094,1.93549823 C16.9241634,2.12420767 16.7665697,2.46735992 16.5455283,2.96495497 C16.9903824,2.60020899 17.2918355,2.47767882 17.4498878,2.59736444 C17.6869661,2.77689287 17.4095609,3.42088751 16.734099,4.41403405 C16.0586372,5.40718059 14.5993582,10.0539106 12.6113816,10.8617426 C12.6113816,16.6906764 12.6113816,21.6276647 12.6113816,25.6727076 C12.4225712,29.0987901 11.2412303,30.8118313 9.06735896,30.8118313 C5.80655194,30.8118313 4.24155716,28.6122167 0.169293086,24.1925586 L4.17707414,19.2291475 L7.31201572,22.5573889 Z" id="path-38"></path>
        <path d="M6.07275408,-2.70682947e-14 C6.55647296,3.14219561 6.98014619,4.82689916 7.34377379,5.05411063 C7.88921517,5.39492784 15.9531498,9.11746595 20.0386573,9.47963794 C24.1241648,9.84180993 24.7889479,10.0160067 25.9830469,11.1332533 C27.1771459,12.2505 28.2280961,14.1174103 28.6317781,14.4841592 C28.3482808,14.9735913 27.9105727,15.0128614 27.3186538,14.6019695 C26.4307756,13.9856318 26.0629144,12.9740544 25.4034464,12.9740544 C24.963801,12.9740544 25.4187294,13.861154 26.7682315,15.6353533 C27.046377,15.4519755 27.3411457,15.4519755 27.6525377,15.6353533 C28.1196257,15.9104199 27.4623431,16.9210006 27.4623431,16.9210006 C28.0811359,16.1564245 28.6138146,15.8783296 29.0603792,16.0867159 C29.7302262,16.3992955 28.762796,17.2698952 28.4818648,17.6708196 C28.2009337,18.071744 27.8073952,18.3953206 27.2920305,18.5433601 C26.7766658,18.6913995 25.5175525,18.8470754 25.4294843,18.1878521 C25.1305957,18.2107223 24.9616362,18.1299802 24.9226058,17.9456259 C24.423601,18.0551461 24.0357035,18.0083802 23.7589135,17.805328 C23.3437284,17.5007498 21.0962003,15.0190691 20.4785405,13.9965617 C19.8608807,12.9740544 18.0413283,12.5631207 14.493704,12.2343233 C10.9460797,11.905526 3.23140058,11.3755974 2.21150214,9.33659164 C1.53156984,7.97725448 0.794402463,5.19541368 -3.09351939e-14,0.991069253 L6.07275408,-2.70682947e-14 Z" id="path-40"></path>
        <path d="M15.6299698,-0.000117393486 C12.3479477,0.642370804 10.0965759,1.11067879 8.87585458,1.40480656 C5.54425161,2.20754255 4.38796796,2.18015708 2.67814862,4.37518397 C2.16038339,5.03987912 1.28367358,9.00463717 0.0480192077,16.2694581 C4.20256786,16.9137568 6.63660657,17.2318437 7.35013532,17.2237188 C7.4375126,18.1570971 7.60668842,19.7674983 7.85766279,22.0549223 C8.06441097,23.9392613 8.20104208,27.2203064 8.26755611,31.8980576 C16.9140278,33.9608217 23.4761472,33.9608217 27.9539143,31.8980576 C28.026229,26.8931529 28.026229,23.455937 27.9539143,21.5864099 C27.7248636,15.6648492 27.5252325,17.0568155 27.6150435,16.2694581 L35.1020408,12.5032494 C34.2518684,10.6294246 33.5421167,9.05156292 32.9727857,7.76966434 C31.0140273,3.35934829 29.9641962,1.29730743 29.4320686,1.06488691 C27.8707067,0.382921653 23.2700071,0.0279202184 15.6299698,-0.000117393486 Z" id="path-42"></path>
        <path d="M2.52105168,0.14302317 C2.50807086,2.06215767 2.37783929,3.31829754 2.13035698,3.91144276 C1.88287466,4.50458798 1.20651505,4.81704797 0.101278136,4.84882272 C1.25597008,7.35319672 3.01472602,8.60538372 5.37754597,8.60538372 C7.74036591,8.60538372 9.77133212,7.62150402 11.4704446,5.65374463 C11.0846698,5.57375262 10.811293,5.51549464 10.6503141,5.4789707 C9.49426504,5.21667869 8.82948641,4.72517173 8.58366142,3.91144276 C8.28649005,2.92774719 8.2161822,1.67160732 8.37273787,0.14302317 L2.52105168,0.14302317 Z" id="path-44"></path>
        <path d="M0.116992251,0 C1.16463314,1.25522171 2.22443083,1.25522171 3.29638529,0 L0.116992251,0 Z" id="path-46"></path>
        <linearGradient x1="50%" y1="0%" x2="50%" y2="100%" id="linearGradient-48">
            <stop stop-color="#A1B2FF" offset="0%"></stop>
            <stop stop-color="#5679D9" offset="100%"></stop>
        </linearGradient>
    </defs>
    <g id="iOS" stroke="none" stroke-width="1" fill="none" fill-rule="evenodd">
        <g id="Product-page-2-Empty" transform="translate(-67.000000, -737.000000)">
            <g id="Scene-12" transform="translate(67.000000, 737.000000)">
                <path d="M7.48882367,77.2906481 C-0.9453641,120.860206 35.63238,133.294986 66.8788261,126.944807 C98.1252722,120.594629 107.622994,121.769054 150.410388,128.59692 C193.197782,135.424786 218.553466,118.077818 226.177011,85.0229042 C233.800557,51.9679901 208.141651,15.832844 146.733566,2.42115651 C85.3254814,-10.990531 15.9230114,33.7210905 7.48882367,77.2906481 Z" id="Background" fill="#F4F8FF"></path>
                <ellipse id="Oval" fill="#F8FAFF" cx="111.564626" cy="146.938776" rx="108.29932" ry="11.7006803"></ellipse>
                <circle id="Oval-Copy-3" fill="url(#linearGradient-1)" cx="162.721088" cy="7.07482993" r="4.89795918"></circle>
                <circle id="Oval-Copy-2" fill="url(#linearGradient-2)" cx="8.70748299" cy="71.0204082" r="3.80952381"></circle>
                <g id="Imac" transform="translate(50.983519, 17.414966)">
                    <polygon id="Path" fill="#B7C5FF" fill-rule="nonzero" points="49.4246441 96.5986395 84.5266849 96.5986395 84.5266849 112.92517 49.4246441 112.92517"></polygon>
                    <path d="M45.3492136,112.92517 L88.6021154,112.92517 C90.8437448,112.92517 92.6899502,114.768574 92.6899502,117.006803 C92.6899502,119.245031 90.8437448,121.088435 88.6021154,121.088435 L45.3492136,121.088435 C43.1075841,121.088435 41.2613788,119.245031 41.2613788,117.006803 C41.2613788,114.768574 43.1075841,112.92517 45.3492136,112.92517 Z" id="Path" fill="#AAB7EF" fill-rule="nonzero"></path>
                    <path d="M6.36262056,0 L125.683612,0 C129.107831,0 131.873624,2.76095464 131.873624,6.17918405 L131.873624,89.1370082 C131.873624,92.5552376 0.172943394,92.5552376 0.172943394,89.1370082 L0.172943394,6.17918405 C0.172943394,2.76095464 2.93840153,0 6.36262056,0 Z" id="Path" fill="#455A94" fill-rule="nonzero"></path>
                    <polygon id="Path" fill="url(#linearGradient-3)" points="6.15933795 6.2585034 125.61512 6.2585034 125.61512 75.9183673 6.15933795 75.9183673"></polygon>
                    <polygon id="Path" fill="#AAB7EF" fill-rule="nonzero" points="49.4246441 96.3265306 84.5266849 96.3265306 84.5266849 102.585034 49.4246441 102.585034"></polygon>
                    <path d="M0.172943394,90.6520765 C0.172943394,94.0921499 2.93872891,96.8707483 6.36293924,96.8707483 L125.683628,96.8707483 C129.107838,96.8707483 131.873624,94.0921499 131.873624,90.6520765 L131.873624,82.4489796 L0.172943394,82.4489796 L0.172943394,90.6520765 Z" id="Path" fill="url(#linearGradient-4)" fill-rule="nonzero"></path>
                </g>
                <circle id="Oval-Copy-3" fill="#4DD5B7" cx="158.911565" cy="130.068027" r="2.72108844"></circle>
                <g id="Chart-2" transform="translate(125.714286, 37.278912)">
                    <mask id="mask-6" fill="white">
                        <use xlink:href="#path-5"></use>
                    </mask>
                    <g id="Mask">
                        <use fill="black" fill-opacity="1" filter="url(#filter-7)" xlink:href="#path-5"></use>
                        <use fill="#FFFFFF" fill-rule="evenodd" xlink:href="#path-5"></use>
                    </g>
                    <g id="Group-6" mask="url(#mask-6)" fill-rule="nonzero">
                        <g transform="translate(9.438776, 16.326531)">
                            <rect id="Rectangle" fill="url(#linearGradient-8)" x="0" y="4.00979137" width="3.52316042" height="19.8130868" rx="1.25439997"></rect>
                            <rect id="Rectangle-Copy-6" fill="url(#linearGradient-9)" x="7.04632084" y="10.8500237" width="3.52316042" height="12.9728544" rx="1.25439997"></rect>
                            <rect id="Rectangle-Copy-7" fill="url(#linearGradient-10)" x="14.0926417" y="5.89675201" width="3.52316042" height="17.9261261" rx="1.25439997"></rect>
                            <rect id="Rectangle-Copy-8" fill="url(#linearGradient-11)" x="21.1389625" y="0" width="3.52316042" height="23.8228781" rx="1.25439997"></rect>
                        </g>
                    </g>
                    <rect id="Rectangle" fill="url(#linearGradient-12)" fill-rule="nonzero" mask="url(#mask-6)" x="-0.629251701" y="0" width="43.8095238" height="9.79591837"></rect>
                    <circle id="Oval" fill="#FFFFFF" mask="url(#mask-6)" cx="5.76530612" cy="5.03401361" r="1"></circle>
                    <circle id="Oval-Copy-5" fill="#FFFFFF" mask="url(#mask-6)" cx="10.3911565" cy="5.03401361" r="1"></circle>
                    <circle id="Oval-Copy-6" fill="#FFFFFF" mask="url(#mask-6)" cx="15.0170068" cy="5.03401361" r="1"></circle>
                </g>
                <g id="TROLLEY" transform="translate(63.401361, 61.496599)">
                    <circle id="Oval" fill="url(#linearGradient-13)" fill-rule="nonzero" cx="13.2789108" cy="13.2789108" r="13.2789108"></circle>
                    <g id="Troli" transform="translate(5.006802, 7.836734)">
                        <path d="M14.3280682,1.99024614 C14.2426096,1.88785213 14.115771,1.82857139 13.9826355,1.82857139 L3.06192572,1.82857139 C2.92249326,1.82857139 2.79025732,1.89324129 2.70479872,2.00371904 C2.62023968,2.11509498 2.59145363,2.25880587 2.6274362,2.39353483 L4.06673897,7.76472939 C4.11981326,7.96233187 4.29792698,8.09795902 4.5012285,8.09795902 C4.50842501,8.09795902 4.51652109,8.09795902 4.5237176,8.09706083 L13.1055604,7.66592816 C13.3133597,7.65514984 13.4878752,7.50335521 13.5256569,7.29856719 L14.4252211,2.3585053 C14.4495094,2.22647092 14.4135268,2.09174196 14.3280682,1.99024614 Z" id="Path" fill="#FFFFFF"></path>
                        <g id="Group" transform="translate(5.420408, 3.591837)" fill="#7D97ED" fill-rule="nonzero">
                            <path d="M5.82157423,2.71469332 C5.57438123,2.71469332 5.37376083,2.51200466 5.37376083,2.26226328 L5.37376083,0.452543143 C5.37376083,0.202801763 5.57438123,0.000113107509 5.82157423,0.000113107509 C6.06876723,0.000113107509 6.26938763,0.202801763 6.26938763,0.452543143 L6.26938763,2.26226328 C6.26938763,2.51200466 6.06876723,2.71469332 5.82157423,2.71469332 Z" id="Path"></path>
                            <path d="M3.13469382,2.71469332 C2.88750082,2.71469332 2.68688041,2.51200466 2.68688041,2.26226328 L2.68688041,0.452543143 C2.68688041,0.202801763 2.88750082,0.000113107509 3.13469382,0.000113107509 C3.38188681,0.000113107509 3.58250722,0.202801763 3.58250722,0.452543143 L3.58250722,2.26226328 C3.58250722,2.51200466 3.38188681,2.71469332 3.13469382,2.71469332 Z" id="Path"></path>
                            <path d="M0.447813402,2.71469332 C0.200620404,2.71469332 0,2.51200466 0,2.26226328 L0,0.452543143 C0,0.202801763 0.200620404,0.000113107509 0.447813402,0.000113107509 C0.6950064,0.000113107509 0.895626804,0.202801763 0.895626804,0.452543143 L0.895626804,2.26226328 C0.895626804,2.51200466 0.6950064,2.71469332 0.447813402,2.71469332 Z" id="Path"></path>
                        </g>
                        <g id="Group" fill="#FFFFFF" fill-rule="nonzero">
                            <ellipse id="Oval" cx="5.85189493" cy="12.1413485" rx="1.35043729" ry="1.34902624"></ellipse>
                            <ellipse id="Oval" cx="11.2536441" cy="12.1413485" rx="1.35043729" ry="1.34902624"></ellipse>
                            <path d="M12.1539356,9.89297149 L4.9516034,9.89297149 C4.74723722,9.89297149 4.5689795,9.75627016 4.51676259,9.55931233 L2.20211308,0.899463243 L0.450145764,0.899463243 C0.201665302,0.899463243 0,0.698008659 0,0.449787831 C0,0.201567004 0.201665302,0.000112418853 0.450145764,0.000112418853 L2.54782502,0.000112418853 C2.7521912,0.000112418853 2.93044892,0.136813744 2.98266583,0.333771575 L5.29731535,8.99362066 L12.1539356,8.99362066 C12.4024161,8.99362066 12.6040814,9.19507525 12.6040814,9.44329607 C12.6040814,9.6915169 12.4024161,9.89297149 12.1539356,9.89297149 Z" id="Path"></path>
                        </g>
                    </g>
                </g>
                <g id="TROLLEY-Copy" transform="translate(63.401361, 30.476190)">
                    <circle id="Oval" fill="url(#linearGradient-1)" cx="13.2789108" cy="13.2789108" r="13.2789108"></circle>
                    <path d="M17.9186793,8.05442129 L19.1564614,19.5918356 L6.96598598,19.5918356 L8.20359233,8.05442129 L17.9186793,8.05442129 Z M15.3244391,10.666666 C15.1317311,10.666666 14.9754097,10.8229821 14.9754097,11.0156836 L14.9754097,11.0156836 L14.9754097,13.2789991 C14.9754097,14.3343534 14.1167903,15.1931203 13.0612237,15.1931203 C12.0056571,15.1931203 11.1468611,14.3343534 11.1468611,13.2789991 L11.1468611,13.2789991 L11.1468611,11.0156836 C11.1468611,10.8229821 10.9907164,10.666666 10.7978317,10.666666 C10.6051237,10.666666 10.448979,10.8229821 10.448979,11.0156836 L10.448979,11.0156836 L10.448979,13.2789991 C10.448979,14.7194031 11.6207709,15.8911555 13.0612237,15.8911555 C14.5016765,15.8911555 15.6734685,14.7194031 15.6734685,13.2789991 L15.6734685,13.2789991 L15.6734685,11.0156836 C15.6734685,10.8229821 15.5173238,10.666666 15.3244391,10.666666 Z" id="Combined-Shape" fill="#FFFFFF"></path>
                </g>
                <g id="Group-2" transform="translate(95.782313, 41.632653)" stroke="#B7CAEA" stroke-linecap="round" stroke-width="1.36054422">
                    <line x1="0" y1="0.136054422" x2="17.6870748" y2="0.136054422" id="Path-23"></line>
                    <line x1="0" y1="5.03401361" x2="17.6870748" y2="5.03401361" id="Path-23-Copy"></line>
                    <line x1="0" y1="9.93197279" x2="17.6870748" y2="9.93197279" id="Path-23-Copy-2"></line>
                </g>
                <g id="Group-2-Copy" transform="translate(95.782313, 70.204082)" stroke="#B7CAEA" stroke-linecap="round" stroke-width="1.36054422">
                    <line x1="0" y1="0.136054422" x2="17.6870748" y2="0.136054422" id="Path-23"></line>
                    <line x1="0" y1="5.03401361" x2="17.6870748" y2="5.03401361" id="Path-23-Copy"></line>
                    <line x1="0" y1="9.93197279" x2="17.6870748" y2="9.93197279" id="Path-23-Copy-2"></line>
                </g>
                <g id="Flower" transform="translate(0.000000, 98.775510)">
                    <path d="M12.6544023,32.5085206 C14.0420532,22.0948498 14.0420532,14.5931325 12.6544023,10.0033685" id="Path-3" stroke="#29365A" stroke-width="0.5"></path>
                    <path d="M11.4379059,32.5085206 C10.7332701,26.8980049 8.82539668,21.6742838 5.71428562,16.8373573" id="Path-4" stroke="#29365A" stroke-width="0.5"></path>
                    <path d="M14.1430531,32.5085206 C14.4711732,27.2847995 16.1901466,23.5339408 19.2999733,21.2559445" id="Path-5" stroke="#29365A" stroke-width="0.5"></path>
                    <path d="M7.37440204,33.7897972 L17.9344025,33.7897972 L16.5625977,45.6234565 C16.4846415,46.2959329 15.9151138,46.8032528 15.238134,46.8032528 L10.0706706,46.8032528 C9.39369078,46.8032528 8.824163,46.2959329 8.74620687,45.6234565 L7.37440204,33.7897972 L7.37440204,33.7897972 Z" id="Rectangle" fill="#8598CC"></path>
                    <rect id="Rectangle" fill="#455A94" x="6.36868771" y="31.7783685" width="12.5714291" height="3.01714299" rx="1.00571433"></rect>
                    <g id="Path-8" transform="translate(15.139834, 17.828323)">
                        <mask id="mask-15" fill="white">
                            <use xlink:href="#path-14"></use>
                        </mask>
                        <use id="Mask" fill="#4DD5B7" fill-rule="nonzero" xlink:href="#path-14"></use>
                        <path d="M13.2411176,2.19920104 C11.0799023,1.32015376 9.09038551,1.16701827 7.27256709,1.7397946 C4.54583946,2.59895909 2.79456822,3.42762131 0.128282157,9.05390933" stroke="#FFFFFF" stroke-width="0.5" mask="url(#mask-15)"></path>
                    </g>
                    <g id="Path-375" transform="translate(7.463603, 0.055856)">
                        <mask id="mask-17" fill="white">
                            <use xlink:href="#path-16"></use>
                        </mask>
                        <use id="Mask" fill="#4DD5B7" fill-rule="nonzero" xlink:href="#path-16"></use>
                        <path d="M-6.76707367e-14,5.80034886e-15 C2.10752267,1.5146366 3.49953656,4.37146069 4.17604167,8.57047226 C5.19079934,14.8689896 6.8221111,13.6634181 6.07037622,23.3377835" stroke="#FFFFFF" stroke-width="0.5" mask="url(#mask-17)"></path>
                    </g>
                    <g id="Path-383" transform="translate(0.187260, 14.505056)">
                        <mask id="mask-19" fill="white">
                            <use xlink:href="#path-18"></use>
                        </mask>
                        <use id="Mask" fill="#4DD5B7" fill-rule="nonzero" xlink:href="#path-18"></use>
                        <path d="M9.66724811e-16,0.826114174 C2.64211794,0.351031936 4.41996198,1.08191146 5.33353212,3.01875273 C6.70388733,5.92401465 8.99610674,7.75011288 10.1233763,12.3771761" stroke="#FFFFFF" stroke-width="0.5" mask="url(#mask-19)"></path>
                    </g>
                </g>
                <g id="Woman" transform="translate(36.261905, 87.122449) scale(-1, 1) translate(-36.261905, -87.122449) translate(6.761905, 26.122449)">
                    <g id="Woman-3" transform="translate(0.000000, 35.322378)">
                        <g id="Pants" transform="translate(21.567189, 42.737159) scale(-1, 1) translate(-21.567189, -42.737159) translate(0.067189, 0.237159)">
                            <path d="M32.7592161,35.8443651 C33.0099292,36.603461 32.389561,37.0306685 30.8981115,37.1259876 C28.6609372,37.2689662 22.1319321,36.5008734 16.5185358,37.3902764 C10.9051395,38.2796794 0.988959921,38.343714 0.533594814,35.2224372 C0.509024059,35.0540182 0.817787716,34.9753682 0.891807384,34.8307422 C1.45214643,33.7359038 8.55413444,33.6016331 22.1977714,34.42793 L32.7592161,35.8443651 Z" id="Path-195" fill="#1F2A54"></path>
                            <g id="Foot" transform="translate(0.126399, 34.118359)">
                                <path d="M4.35008356,45.4953414 C2.42764902,46.7115559 1.56363426,47.6413113 1.75803928,48.2846075 C2.04964681,49.2495518 3.68972487,49.2685855 4.86491261,49.065914 C5.64837111,48.9307997 7.13336095,48.5154836 9.31988215,47.8199656 C9.14940396,44.4619029 9.44575826,42.5234791 10.208945,42.0046939 L10.0910777,46.65583 L10.7581433,46.6581204 C10.5864129,43.3376833 10.7985709,41.3152482 11.3946173,40.590815 C11.9906637,39.8663818 11.5455836,38.9099314 10.0593771,37.7214638 L4.35008356,45.4953414 Z" id="Path-121" fill="#022329" transform="translate(6.690902, 43.445201) scale(-1, 1) rotate(-6.000000) translate(-6.690902, -43.445201) "></path>
                                <path d="M32.5992554,43.2937046 C29.422669,44.3279292 27.7407397,45.1227178 27.5534673,45.6780702 C27.3661949,46.2334226 27.5280967,46.6612995 28.0391727,46.9617009 C32.0787293,46.9649661 34.252392,46.8905959 34.560161,46.7385904 C35.0218144,46.510582 36.7379123,42.7889831 37.7612964,42.7924969 C38.4435525,42.7948395 38.7271382,44.1148414 38.6120536,46.7525027 L39.6758032,46.7561551 C39.6302582,44.1809229 39.8757804,42.5376423 40.4123698,41.8263134 C41.217254,40.75932 41.4135404,38.3747142 39.6450006,38.0748895 C38.4659741,37.8750063 36.1173923,39.6146114 32.5992554,43.2937046 Z" id="Path-122" fill="#022329" transform="translate(34.241990, 42.510622) scale(-1, 1) rotate(-6.000000) translate(-34.241990, -42.510622) "></path>
                                <g id="Path-127" transform="translate(0.191995, 0.224594)">
                                    <mask id="mask-21" fill="white">
                                        <use xlink:href="#path-20"></use>
                                    </mask>
                                    <use id="Mask" fill="#FFC6CB" transform="translate(7.261725, 23.276884) scale(-1, 1) rotate(-6.000000) translate(-7.261725, -23.276884) " xlink:href="#path-20"></use>
                                    <path d="M13.9313564,2.36646269 C10.8601316,4.08109258 8.06890675,5.00475582 5.55768191,5.1374524 L5.47109767,2.04562975 L13.9313564,2.36646269 Z" fill="#FD9493" mask="url(#mask-21)" transform="translate(9.701227, 3.591541) scale(-1, 1) translate(-9.701227, -3.591541) "></path>
                                </g>
                                <g id="Path-119" transform="translate(13.547633, 0.347205)">
                                    <mask id="mask-23" fill="white">
                                        <use xlink:href="#path-22"></use>
                                    </mask>
                                    <use id="Mask" fill="#FFC6CB" transform="translate(13.292407, 22.093262) scale(-1, 1) rotate(-6.000000) translate(-13.292407, -22.093262) " xlink:href="#path-22"></use>
                                    <path d="M15.3081682,2.63089523 C8.33217274,2.53270981 4.63282979,3.1596044 4.21013939,4.511579 L4.73867013,0.75021146 C7.45447434,0.859409256 9.44587481,1.02672969 10.7128715,1.25217277 C11.9798683,1.47761585 13.5116338,1.93719 15.3081682,2.63089523 Z" fill="#FD9493" mask="url(#mask-23)" transform="translate(9.759154, 2.630895) scale(-1, 1) translate(-9.759154, -2.630895) "></path>
                                </g>
                            </g>
                            <g id="Path-118" transform="translate(0.061925, 0.176170)">
                                <mask id="mask-25" fill="white">
                                    <use xlink:href="#path-24"></use>
                                </mask>
                                <use id="Mask" fill="#2E3C72" transform="translate(18.118041, 19.877316) scale(-1, 1) rotate(-6.000000) translate(-18.118041, -19.877316) " xlink:href="#path-24"></use>
                                <path d="M2.35645214,3.33758466 C11.4633305,5.81454447 17.0096461,8.06173636 18.9953989,10.0791603 C21.9740282,13.1052963 26.5533839,21.3553893 28.789233,39.5647549 L34.4474085,39.8499145 C33.5451435,32.1264707 32.7665867,26.8686551 32.1117381,24.0764675 C28.9989542,10.8039702 24.8061482,4.19021297 22.1152096,1.18116761 L1.63992986,1.33694076 L2.35645214,3.33758466 Z" id="Path-193" fill="#1F2A54" mask="url(#mask-25)"></path>
                            </g>
                        </g>
                    </g>
                    <g id="Path-197" transform="translate(9.424398, 1.091803)">
                        <mask id="mask-27" fill="white">
                            <use xlink:href="#path-26"></use>
                        </mask>
                        <use id="Mask" fill="#FFC6CB" xlink:href="#path-26"></use>
                        <g id="Path-196-+-Path-198-Mask" mask="url(#mask-27)">
                            <g transform="translate(10.907606, 13.012698)">
                                <mask id="mask-29" fill="white">
                                    <use xlink:href="#path-28"></use>
                                </mask>
                                <use id="Mask" stroke="none" fill="#80DCC1" fill-rule="evenodd" xlink:href="#path-28"></use>
                                <path d="M1.26418432,13.5989165 C0.948537889,15.2632738 1.41675041,16.6923298 2.66882189,17.8860844 C4.00437521,19.1594325 13.9406466,19.7535741 15.5786535,18.5038468 C17.0679771,17.3675584 18.6307535,14.3731237 18.6403765,11.3850237 L20.2291964,13.4052303 L16.7993395,24.147629 L0.603322272,24.6293786 L1.38156643,18.5038468 L0.779257031,14.5532599 L1.26418432,13.5989165 Z" id="Path-196" stroke="none" fill="#73CFB4" fill-rule="evenodd" mask="url(#mask-29)"></path>
                                <path d="M4.55501887,3.27292741 C5.39649235,6.79772468 4.62879247,9.44014869 2.25191922,11.2001994 L3.78345669,3.15364541 L4.55501887,3.27292741 Z" id="Path-198" stroke="none" fill="#73CFB4" fill-rule="evenodd" mask="url(#mask-29)"></path>
                            </g>
                        </g>
                        <path d="M12.8195168,24.3977218 C13.3979579,23.9786238 14.0218065,23.0949996 14.6910625,21.7468491" id="Path-199" stroke="#FD9493" stroke-width="0.5" mask="url(#mask-27)"></path>
                        <path d="M30.0079625,24.8297063 C30.71711,25.4694536 31.7425113,25.9925352 33.0841665,26.3989511" id="Path-200" stroke="#FD9493" stroke-width="0.5" mask="url(#mask-27)"></path>
                    </g>
                    <g id="Right-hand" transform="translate(10.795918, 31.784963)">
                        <mask id="mask-31" fill="white">
                            <use xlink:href="#path-30"></use>
                        </mask>
                        <use id="Mask" fill="#FFC6CB" xlink:href="#path-30"></use>
                        <line x1="11.5707156" y1="7.99009883" x2="10.1394082" y2="7.92858893" id="Path-61" stroke="#FD9493" stroke-width="0.5" mask="url(#mask-31)"></line>
                        <path d="M14.4401017,8.30975538 C13.5790522,7.63053503 12.9977995,7.25260354 12.6963436,7.17596091 C12.3948877,7.09931829 11.7678367,7.02363703 10.8151906,6.94891713" id="Path-62" stroke="#FD9493" stroke-width="0.5" mask="url(#mask-31)"></path>
                        <line x1="11.9669932" y1="5.93254253" x2="11.7135108" y2="6.23142278" id="Path-63" stroke="#FD9493" stroke-width="0.5" mask="url(#mask-31)"></line>
                    </g>
                    <g id="Head-woman-3-" transform="translate(34.058252, 13.543590) scale(-1, 1) rotate(-3.000000) translate(-34.058252, -13.543590) translate(28.058252, 0.543590)">
                        <g id="Head-woman-2" transform="translate(0.000000, 0.000000)">
                            <g id="Path-31" transform="translate(1.647523, 12.767823)">
                                <mask id="mask-33" fill="white">
                                    <use xlink:href="#path-32"></use>
                                </mask>
                                <use id="Mask" fill="#FFC6CB" xlink:href="#path-32"></use>
                                <path d="M7.22602287,0.953201027 C5.76674357,2.29745596 4.0861818,3.19404183 2.18433757,3.64295864 C2.52807467,1.0997474 2.69994322,-0.171858217 2.69994322,-0.171858217 L7.29758947,-0.125483456 L7.22602287,0.953201027 Z" fill="#FD9493" mask="url(#mask-33)" transform="translate(4.740964, 1.735550) scale(-1, 1) translate(-4.740964, -1.735550) "></path>
                            </g>
                            <path d="M11.0175323,7.98083956 C12.1436934,3.39081442 11.3236538,1.09580185 8.55741351,1.09580185 C7.30873898,-0.18100278 5.51750692,-0.203591313 3.18371734,1.02803626 C-0.316967029,2.87547761 0.792620708,7.85657218 2.7284744,10.3881759 C4.01904352,12.0759118 6.78206282,11.2734663 11.0175323,7.98083956 Z" id="Path-29" fill="#022329"></path>
                            <path d="M10.7909395,6.54128399 C11.182937,6.4055673 11.4379501,6.44732284 11.5559788,6.66655061 C11.7203302,6.9718188 11.4091604,7.32661611 11.1876135,7.82426005 C10.9747759,8.30234101 11.0013359,8.91244106 10.6157894,8.80896166 C10.2791384,8.71860564 10.3375218,7.96271308 10.7909395,6.54128399 Z" id="Path-2" fill="#FFC6CB"></path>
                            <path d="M1.27910846,6.56145981 C1.70549989,6.41229258 1.97770993,6.44732284 2.09573858,6.66655061 C2.26008999,6.9718188 1.9332135,7.26485778 1.71166665,7.76250172 C1.49882907,8.24058268 1.64329428,8.82056127 1.16251546,8.82056127 C0.822882719,8.82056127 0.861747055,8.06752745 1.27910846,6.56145981 Z" id="Path-2-Copy" fill="#FFC6CB" transform="translate(1.537129, 7.645711) scale(-1, 1) translate(-1.537129, -7.645711) "></path>
                            <path d="M1.84850872,6.10570788 C1.35992503,11.6202303 4.33901805,14.0733992 6.19463725,14.0733992 C8.05025645,14.0733992 11.0013436,11.6577403 10.2913459,6.46344497 C9.69100535,5.50156011 9.28728596,4.89306962 9.08018776,4.6379735 C8.76770516,4.25306867 8.58471955,3.82670016 8.53123092,3.35886798 C7.68567374,4.14577668 6.57252058,4.83224569 5.19177146,5.41827501 C4.60592701,5.66692411 3.4915061,5.8960684 1.84850872,6.10570788 Z" id="Path" fill="#FFC6CB"></path>
                            <g id="Group-11" transform="translate(4.081633, 6.258503)">
                                <path d="M1.52773046,3.54836787 C1.68815457,3.87177914 1.90117908,4.03348478 2.16680397,4.03348478 C2.43242886,4.03348478 2.61096241,3.87177914 2.70240463,3.54836787 C2.56930509,3.68223465 2.39077154,3.74916803 2.16680397,3.74916803 C1.9428364,3.74916803 1.7298119,3.68223465 1.52773046,3.54836787 Z" id="Path-6" fill="#FD9493"></path>
                                <circle id="Oval" fill="#352324" cx="3.56855798" cy="1.80140922" r="1"></circle>
                                <circle id="Oval-Copy-3" fill="#352324" cx="0.521311846" cy="1.78716814" r="1"></circle>
                                <path d="M0.0976641495,0.172851428 C0.285266839,0.0735966009 1.03830443,0 1.32745485,0 C1.61660528,0 1.5933158,0.295825802 1.36861424,0.254024727 C1.14391268,0.212223651 0.521505018,0.239674597 0.264470547,0.295825802 C0.0074360771,0.351977007 -0.0899385405,0.272106255 0.0976641495,0.172851428 Z" id="Path-44" fill="#553D3F"></path>
                                <path d="M2.92759612,0.172851428 C3.11519881,0.0735966009 3.8682364,0 4.15738683,0 C4.44653725,0 4.42324777,0.295825802 4.19854621,0.254024727 C3.97384465,0.212223651 3.35143699,0.239674597 3.09440252,0.295825802 C2.83736805,0.351977007 2.73999343,0.272106255 2.92759612,0.172851428 Z" id="Path-44-Copy" fill="#553D3F" transform="translate(3.600326, 0.157202) scale(-1, 1) translate(-3.600326, -0.157202) "></path>
                                <g id="Rectangle" transform="translate(0.941221, 5.096985)">
                                    <mask id="mask-35" fill="white">
                                        <use xlink:href="#path-34"></use>
                                    </mask>
                                    <use id="Mask" fill="#8F4447" xlink:href="#path-34"></use>
                                    <path d="M-0.130545001,-0.547649655 L2.4816999,-0.547649655 L2.51066971,-0.0688029123 C1.96747757,0.138976987 1.54810477,0.242866936 1.25255132,0.242866936 C0.956997866,0.242866936 0.505622366,0.138976987 -0.101575183,-0.0688029123 L-0.130545001,-0.547649655 Z" fill="#FFFFFF" mask="url(#mask-35)"></path>
                                </g>
                            </g>
                            <path d="M8.53123092,3.35886798 C8.40410949,4.38652672 7.01543475,5.63742299 4.36520669,7.1115568 C2.62662494,8.26096388 1.95103548,10.0618578 2.33843831,12.5142387 C0.22085944,10.0646501 -0.255249801,8.09928714 0.910110582,6.61814973 C1.53712904,5.82122844 4.19654208,5.82122844 5.56059075,5.23114538 C6.46995654,4.83775668 7.46016993,4.21366421 8.53123092,3.35886798 Z" id="Path-32" fill="#164D57"></path>
                            <g id="Group-4" transform="translate(3.172118, 6.652301)" stroke="#FFFFFF" stroke-width="0.5">
                                <ellipse id="Oval" cx="4.58948173" cy="1.47991281" rx="1.20360019" ry="1.19068748"></ellipse>
                                <ellipse id="Oval-Copy-2" cx="1.36555123" cy="1.46567173" rx="1.20360019" ry="1.19068748"></ellipse>
                                <line x1="2.56582749" y1="1.26715577" x2="3.38588154" y2="1.26715577" id="Path-19"></line>
                                <line x1="5.76604195" y1="1.1910157" x2="7.52152508" y2="4.82730051e-13" id="Path-20"></line>
                            </g>
                            <path d="M8.53123092,3.35886798 C8.4349692,4.68390596 8.82742351,5.97818679 9.70859383,7.24171049 C11.0303493,9.13699605 11.0174517,11.0917555 8.96817673,13.5686391 C10.8138921,12.6747625 11.7817922,11.3615706 11.8718772,9.62906319 C11.9454083,8.21491758 11.3829926,7.49177015 9.86250841,5.68351643 C9.63430747,5.41212579 9.19054831,4.63724297 8.53123092,3.35886798 Z" id="Path-33" fill="#164D57"></path>
                            <path d="M3.48898625,12.5959644 C0.835336399,14.7382415 -0.2712619,16.8405813 0.169191347,18.902984 C0.829871218,21.996588 3.6768387,21.6283709 3.00935713,25.9896263 C5.29829525,25.4644234 6.51381793,24.4651015 6.65592517,22.9916606 C6.86908602,20.7814992 4.11125469,19.5927347 4.11125469,16.5628282 L4.11125469,13.215249 C3.9615442,13.0861947 3.85179361,12.9869396 3.78200291,12.9174835 C3.71221221,12.8480275 3.61453999,12.7408544 3.48898625,12.5959644 Z" id="Path-34" fill="#022329"></path>
                            <path d="M4.01825162,13.2479845 C4.08038366,16.2672831 4.44280056,18.2165514 5.10550231,19.0957893 C6.09955494,20.4146462 8.51701052,23.3281924 5.29624683,24.9435941" id="Path-3" stroke="#022329" stroke-width="0.5"></path>
                        </g>
                    </g>
                </g>
                <g id="Man-Copy" transform="translate(153.557823, 21.768707)">
                    <g id="Pants" transform="translate(18.866960, 49.772715)">
                        <g id="Foot" transform="translate(0.000000, 64.504161)">
                            <polygon id="Path-179" fill="#EE9A89" points="7.46665272 2.69893943 7.46665272 5.89055624 11.9222525 7.82955546 12.8789515 6.92948602 12.8789515 1.93534006"></polygon>
                            <path d="M20.5821449,2.23291359 L20.1379793,8.64319366 L25.5506154,8.64319366 C24.6029121,5.69392884 24.3957098,3.23561098 24.9290084,1.26824009 C25.462307,-0.699130802 24.0133525,-0.37757297 20.5821449,2.23291359 Z" id="Path-180" fill="#EE9A89"></path>
                            <path d="M2.68894308,10.2091304 C0.547264153,11.3707128 1.16006977e-14,12.0111264 1.16006977e-14,13.0362604 C4.07610891,14.195219 6.94142849,14.0819992 8.59595875,12.6966009 C9.52237105,11.6064372 10.2677329,11.5296863 10.8320442,12.4663482 L13.734352,12.1979592 C14.0942809,9.38298437 13.8484194,7.24485824 12.9967675,5.78358078 C12.6273096,6.5085142 12.0584089,6.84381395 11.2900655,6.78948005 C10.1375503,6.70797919 8.31164534,5.14716082 7.43482544,4.94868828 C5.69868982,7.68126144 4.11672903,9.43474216 2.68894308,10.2091304 Z" id="Path-177" fill="#022329"></path>
                            <path d="M20.7976944,6.3332681 C22.1772751,4.97540002 23.5689908,4.88714355 24.9728418,6.0684987 C25.2727165,7.51416853 25.839283,8.72909007 26.6725414,9.71326332 C27.9224289,11.1895232 29.2325796,12.7249137 27.8081324,14.6763443 C24.8796501,14.9936209 22.7822647,14.6688121 21.5159764,13.7019181 C21.444486,13.0931119 21.4252618,12.7204275 21.458304,12.5838649 C20.9727151,12.7426164 20.3097883,12.6207485 19.4695236,12.2182612 C19.4386842,10.3202688 19.5268384,8.91234683 19.7339863,7.99449526 C19.8219875,7.60457058 20.1765569,7.0508282 20.7976944,6.3332681 Z" id="Path-178" fill="#022329"></path>
                        </g>
                        <g id="Path-181" transform="translate(5.469444, 0.000000)">
                            <mask id="mask-37" fill="white">
                                <use xlink:href="#path-36"></use>
                            </mask>
                            <use id="Mask" fill="#3D3241" xlink:href="#path-36"></use>
                            <path d="M25.1815644,0.9003778 C21.9934028,2.0538543 19.5146061,2.85306657 17.7451745,3.29801459 C13.5500239,4.35294316 8.60711806,5.09887448 7.27030456,6.11864829 C2.14540909,10.0281197 0.132495938,16.6994325 1.23156511,26.1325868 C-1.07453653,13.6475377 -0.763539169,4.94441001 2.16455718,0.0232036541 L25.1815644,0.9003778 Z" fill="#2C232F" mask="url(#mask-37)" transform="translate(12.444542, 13.077895) scale(-1, 1) translate(-12.444542, -13.077895) "></path>
                            <path d="M12.7229073,16.1671027 L13.5628115,14.7420863 C14.0859179,29.2289285 14.3474711,38.2377491 14.3474711,41.7685481 L12.7229073,32.0011962 L12.7229073,16.1671027 Z" id="Path-176" fill="#2C232F" mask="url(#mask-37)"></path>
                        </g>
                    </g>
                    <g id="Hnad" transform="translate(16.505656, 31.089802) scale(-1, 1) rotate(30.000000) translate(-16.505656, -31.089802) translate(7.505656, 15.589802)">
                        <mask id="mask-39" fill="white">
                            <use xlink:href="#path-38"></use>
                        </mask>
                        <use id="Mask" fill="#EE9A89" xlink:href="#path-38"></use>
                        <path d="M15.073759,0.616379716 C14.634478,1.89050188 14.0996584,3.02882614 13.4693,4.03135247" id="Path-120" stroke="#C17262" stroke-width="0.5" mask="url(#mask-39)"></path>
                        <path d="M16.1576719,1.14791853 C15.66935,2.40300799 15.1061801,3.57214433 14.4681623,4.65532756" id="Path-128" stroke="#C17262" stroke-width="0.5" mask="url(#mask-39)"></path>
                        <path d="M16.6116066,2.90162304 C15.9060286,4.18183338 15.5104789,4.89459859 15.4249574,5.03991868" id="Path-129" stroke="#C17262" stroke-width="0.5" mask="url(#mask-39)"></path>
                        <path d="M13.1332582,3.76055599 C14.0585432,4.19918747 14.8695891,4.66174755 15.5663961,5.14823624" id="Path-130" stroke="#C17262" stroke-width="0.5" mask="url(#mask-39)"></path>
                        <path d="M10.890844,6.30710937 C11.6922377,7.07700743 11.959369,7.970552 11.6922377,8.98774308" id="Path-131" stroke="#C17262" stroke-width="0.5" mask="url(#mask-39)"></path>
                        <path d="M7.31201572,22.5573889 C6.97651005,23.5546174 6.97651005,25.1065704 7.31201572,27.2132481" id="Path-173" stroke="#C17262" stroke-width="0.5" mask="url(#mask-39)"></path>
                    </g>
                    <g id="Group-13" transform="translate(48.346939, 34.557823)">
                        <g id="Path-271">
                            <mask id="mask-41" fill="white">
                                <use xlink:href="#path-40"></use>
                            </mask>
                            <use id="Mask" fill="#EE9A89" xlink:href="#path-40"></use>
                            <path d="M7.34693878,4.89795918 C6.01353875,5.3061016 5.00193194,5.90581769 4.31211834,6.69710745" stroke="#C17262" stroke-width="0.5" mask="url(#mask-41)"></path>
                        </g>
                        <path d="M25.5515718,18.1721168 C26.2694957,18.2533222 26.9407932,17.8363685 27.5654643,16.9212556 C28.1901353,16.0061426 28.7656782,15.7938871 29.2920929,16.2844888" id="Path-266" stroke="#C17262" stroke-width="0.5"></path>
                        <path d="M24.9226058,17.9456259 C25.391216,17.6018574 25.748663,17.274788 25.9949469,16.9644178 C26.2412307,16.6540476 26.5236888,16.2138337 26.8423212,15.643776 C27.0745789,15.3878566 27.3538873,15.3878566 27.6802464,15.643776" id="Path-269" stroke="#C17262" stroke-width="0.5"></path>
                        <path d="M23.9231184,17.1179763 C24.9636358,16.1196268 25.6401615,15.7492716 25.9526956,16.0069106 C26.2652297,16.2645496 26.0528991,16.7794137 25.3157039,17.5515028" id="Path-270" stroke="#C17262" stroke-width="0.5"></path>
                    </g>
                    <g id="Group-9" transform="translate(18.591837, 18.560940)">
                        <g id="Group-8" transform="translate(18.874150, 17.500000) scale(-1, 1) translate(-18.874150, -17.500000) translate(0.374150, 0.000000)">
                            <g id="Body" transform="translate(0.224090, 0.265446)">
                                <mask id="mask-43" fill="white">
                                    <use xlink:href="#path-42"></use>
                                </mask>
                                <use id="Mask" fill="#FFCA23" xlink:href="#path-42"></use>
                                <path d="M8.16101014,9.44000567 C9.20160211,17.1111567 12.5144253,21.4406698 18.0994797,22.4285448 C23.6845342,23.4164199 26.9837307,22.5465826 27.9970694,19.8190328 L28.5792501,32.4860236 C17.833588,35.4007182 10.7572164,35.4007182 7.35013532,32.4860236 C3.94305424,29.571329 3.67276263,23.1031513 6.5392605,13.0814903 L8.16101014,9.44000567 Z" id="Path-174" fill="#F2BF1E" mask="url(#mask-43)"></path>
                                <line x1="8.16101014" y1="9.44000567" x2="6.5392605" y2="13.2860938" id="Path-138" stroke="#5C4644" stroke-width="0.5" mask="url(#mask-43)"></line>
                                <polygon id="Path-175" fill="#F2BF1E" mask="url(#mask-43)" points="27.7035617 16.2077565 26.7694706 7.76966434 31.1780174 15.299609"></polygon>
                                <line x1="26.7694706" y1="7.64612463" x2="27.7035617" y2="16.6053024" id="Path-139" stroke="#5C4644" stroke-width="0.5" mask="url(#mask-43)"></line>
                                <path d="M-0.360624757,22.2357894 C-1.69730221,21.8701245 -3.03397967,22.0589171 -4.37065713,22.8021674" id="Path-140" stroke="#5C4644" stroke-width="0.5" mask="url(#mask-43)"></path>
                                <path d="M36.9877467,10.8633715 C36.5973875,12.7066986 36.9820469,14.1854445 38.141725,15.299609" id="Path-141" stroke="#5C4644" stroke-width="0.5" mask="url(#mask-43)"></path>
                            </g>
                        </g>
                    </g>
                    <g id="Head-Man-Copy-2" transform="translate(32.622831, 0.000000)">
                        <path d="M11.2533519,8.37848387 C12.6725143,4.09538316 10.9649445,0.560229514 6.87500196,0.171176841 C5.49634443,0.0400330904 2.89187782,0.458864034 1.59502274,2.24070692 C0.298167666,4.0225498 0.960143383,7.95367349 1.47966613,8.91181657 C2.00212889,9.87538185 5.26002415,9.69760428 11.2533519,8.37848387 Z" id="Path-40" fill="#022329" transform="translate(6.293549, 4.835436) scale(-1, 1) translate(-6.293549, -4.835436) "></path>
                        <g id="Face" transform="translate(0.153955, 4.657412)">
                            <g id="Path-31" transform="translate(0.584961, 9.451298)">
                                <mask id="mask-45" fill="white">
                                    <use xlink:href="#path-44"></use>
                                </mask>
                                <use id="Mask" fill="#EE9A89" xlink:href="#path-44"></use>
                                <path d="M8.65518096,0.761594569 C6.93969758,2.66068651 4.8554631,3.79246849 2.40247753,4.15694051 C2.74787318,0.956148582 2.92057101,-0.644247383 2.92057101,-0.644247383 L8.7458569,-0.586298803 L8.65518096,0.761594569 Z" fill="#C17262" mask="url(#mask-45)" transform="translate(5.574167, 1.756347) scale(-1, 1) translate(-5.574167, -1.756347) "></path>
                                <path d="M0.73552798,4.81049301 C3.53593055,8.02964927 6.58310655,8.12501529 9.877056,5.09659108 L11.986482,5.4403209 C10.860036,8.1133473 8.17387982,9.24795259 3.92801356,8.84413677 C1.26695091,7.41235697 -0.131965421,6.03687011 -0.268735425,4.71767621 L0.73552798,4.81049301 Z" id="Path-172" fill="#FFCA23" mask="url(#mask-45)"></path>
                            </g>
                            <path d="M10.7606348,2.6128637 C11.4835666,2.33324 11.9206247,2.33324 12.071809,2.6128637 C12.2823286,3.00223147 11.9557613,3.53027889 11.6719793,4.16502077 C11.3993531,4.77481018 11.5834717,5.60694175 10.939523,5.4210018 C10.5089779,5.29668202 10.4493484,4.36063599 10.7606348,2.6128637 Z" id="Path-2" fill="#EE9A89"></path>
                            <path d="M0.319926296,2.53832463 C1.07138812,2.35206763 1.52240333,2.39919222 1.67297194,2.67969842 C1.88263428,3.07029502 1.46563944,3.4452441 1.18301314,4.08198922 C0.911497224,4.69370312 1.09579082,5.43579703 0.482463488,5.43579703 C0.0491955649,5.43579703 -0.00498349907,4.4699729 0.319926296,2.53832463 Z" id="Path-2-Copy" fill="#EE9A89" transform="translate(0.920452, 3.931318) scale(-1, 1) translate(-0.920452, -3.931318) "></path>
                            <path d="M2.84250854,0.180367848 C2.52017102,0.180367848 2.23338385,0.279660136 1.98214702,0.478244713 C1.7309102,0.67682929 1.5861251,0.940290346 1.54779173,1.26862788 C0.906299717,9.15796098 3.66347901,11.3234255 6.15791312,11.1958979 C8.31160829,11.367824 11.3586971,9.59432074 10.7243785,1.23448309 C10.7170792,0.880821487 10.5647999,0.598063401 10.2675407,0.386208833 C9.97028145,0.174354265 9.66927209,0.105740603 9.36451259,0.180367848 C8.26139738,0.534713493 7.19253089,0.711886315 6.15791312,0.711886315 C5.12329535,0.711886315 4.01816049,0.534713493 2.84250854,0.180367848 Z" id="Path" fill="#EE9A89"></path>
                            <path d="M5.58288009,6.48056635 C5.7182414,6.8606022 5.92867768,7.05062012 6.21418893,7.05062012 C6.49970018,7.05062012 6.71013646,6.8606022 6.84549777,6.48056635 C6.66536041,6.62577346 6.45492413,6.69837701 6.21418893,6.69837701 C5.97345373,6.69837701 5.76301745,6.62577346 5.58288009,6.48056635 Z" id="Path-6" fill="#C17262"></path>
                            <ellipse id="Oval" fill="#352324" cx="7.73063189" cy="4.06135184" rx="1" ry="1"></ellipse>
                            <ellipse id="Oval-Copy-3" fill="#352324" cx="4.74732948" cy="4.06135184" rx="1" ry="1"></ellipse>
                            <path d="M3.75326935,2.94147863 C3.95491716,2.83741409 4.7643319,2.76025114 5.07512995,2.76025114 C5.385928,2.76025114 5.36089492,3.07041211 5.11937079,3.02658543 C4.87784665,2.98275875 4.20884162,3.01153992 3.93256393,3.07041211 C3.65628624,3.1292843 3.55162154,3.04554316 3.75326935,2.94147863 Z" id="Path-44" fill="#553D3F"></path>
                            <path d="M7.08754852,2.94147863 C7.28919633,2.83741409 8.09861106,2.76025114 8.40940912,2.76025114 C8.72020717,2.76025114 8.69517409,3.07041211 8.45364995,3.02658543 C8.21212582,2.98275875 7.54312079,3.01153992 7.2668431,3.07041211 C6.9905654,3.1292843 6.88590071,3.04554316 7.08754852,2.94147863 Z" id="Path-44-Copy" fill="#553D3F" transform="translate(7.810643, 2.925070) scale(-1, 1) translate(-7.810643, -2.925070) "></path>
                            <g id="Rectangle" transform="translate(4.525735, 8.466146)">
                                <mask id="mask-47" fill="white">
                                    <use xlink:href="#path-46"></use>
                                </mask>
                                <use id="Mask" fill="#8F4447" xlink:href="#path-46"></use>
                                <path d="M-0.187091231,-0.765583659 L3.55666082,-0.765583659 L3.59817906,-0.0961826322 C2.81970047,0.194282073 2.21867422,0.339514425 1.79510029,0.339514425 C1.37152635,0.339514425 0.724635262,0.194282073 -0.14557299,-0.0961826322 L-0.187091231,-0.765583659 Z" fill="#FFFFFF" mask="url(#mask-47)"></path>
                            </g>
                        </g>
                        <g id="Group" transform="translate(1.279603, 6.775263)" stroke="#022329" stroke-width="0.5">
                            <rect id="Rectangle" x="5.35808263" y="1.21298942" width="2.96949083" height="1.71176841"></rect>
                            <rect id="Rectangle-Copy-2" x="1.68988808" y="1.21298942" width="2.96949083" height="1.71176841"></rect>
                            <line x1="4.6593789" y1="2.06887362" x2="5.35808263" y2="2.06887362" id="Path-15"></line>
                            <line x1="8.20517013" y1="1.56912104" x2="9.85287345" y2="0.285294735" id="Path-16"></line>
                            <line x1="0.210259549" y1="1.49542199" x2="1.86179076" y2="0.203412111" id="Path-16-Copy" transform="translate(1.036025, 0.849417) scale(-1, 1) translate(-1.036025, -0.849417) "></line>
                        </g>
                        <path d="M6.12999165,11.811202 C4.72169483,12.1502291 4.01754641,12.4580561 4.01754641,12.7346831 C4.01754641,12.9323108 4.44144416,12.7753613 5.16023149,12.5778759 C5.35178278,12.5252476 5.67503617,12.4670776 6.12999165,12.4033659 L6.12999165,11.811202 Z" id="Path-41" fill="#022329"></path>
                        <path d="M8.57545469,11.811202 C7.16715786,12.1502291 6.46300945,12.4580561 6.46300945,12.7346831 C6.46300945,12.9323108 6.88690719,12.7753613 7.60569452,12.5778759 C7.79724581,12.5252476 8.1204992,12.4670776 8.57545469,12.4033659 L8.57545469,11.811202 Z" id="Path-41-Copy" fill="#022329" transform="translate(7.519232, 12.318498) scale(-1, 1) translate(-7.519232, -12.318498) "></path>
                    </g>
                </g>
                <g id="Shop" transform="translate(218.503401, 71.020408)">
                    <path d="M14.3795032,9.0933124 C14.1605993,9.0933124 13.9833913,8.91476691 13.9833913,8.69466164 L13.9833913,4.72711831 C13.9833913,2.56016092 12.2317588,0.797301503 10.078602,0.797301503 C7.92544524,0.797301503 6.17381282,2.56016092 6.17381282,4.72711831 L6.17381282,8.69466164 C6.17381282,8.91476691 5.99640437,9.0933124 5.77770093,9.0933124 C5.55899743,9.0933124 5.38158903,8.91476691 5.38158903,8.69466164 L5.38158903,4.72711831 C5.38158903,2.12055571 7.48863966,3.86689924e-15 10.078602,3.86689924e-15 C12.6685644,3.86689924e-15 14.7756151,2.12055571 14.7756151,4.72711831 L14.7756151,8.69466164 C14.7756151,8.91476691 14.5982067,9.0933124 14.3795032,9.0933124 Z" id="Path-Copy-2" fill="#3C3F4D" fill-rule="nonzero"></path>
                    <polygon id="Path-Copy" fill="#435DA8" points="20.0140746 26.3945578 0 26.3945578 2.03171265 6.8596026 17.9817602 6.8596026 18.3209139 10.1198024"></polygon>
                    <polygon id="Path" fill="url(#linearGradient-48)" fill-rule="nonzero" points="21.4965986 26.3945578 1.92728126 26.3945578 3.95017158 6.8596026 19.4731092 6.8596026 19.8107901 10.1198024"></polygon>
                    <g id="Group" transform="translate(6.819611, 0.000000)" fill="#3C3F4D" fill-rule="nonzero">
                        <path d="M9.04241664,9.0933124 C8.82351269,9.0933124 8.64630474,8.91476691 8.64630474,8.69466164 L8.64630474,4.72711831 C8.64630474,2.56016092 6.89467227,0.797301503 4.74151548,0.797301503 C2.58835869,0.797301503 0.836726261,2.56016092 0.836726261,4.72711831 L0.836726261,8.69466164 C0.836726261,8.91476691 0.659317809,9.0933124 0.440614368,9.0933124 C0.221910876,9.0933124 0.0445024752,8.91476691 0.0445024752,8.69466164 L0.0445024752,4.72711831 C0.0445024752,2.12055571 2.1515531,0 4.74151548,0 C7.33147785,0 9.43852853,2.12055571 9.43852853,4.72711831 L9.43852853,8.69466164 C9.43852853,8.91476691 9.26112013,9.0933124 9.04241664,9.0933124 Z" id="Path"></path>
                    </g>
                </g>
            </g>
        </g>
    </g>
</svg>