<?xml version="1.0" encoding="UTF-8"?>
<svg width="72px" height="186px" viewBox="0 0 72 186" version="1.1" xmlns="http://www.w3.org/2000/svg" xmlns:xlink="http://www.w3.org/1999/xlink">
    <title>Woman</title>
    <defs>
        <path d="M3.27395317e-14,29.8897783 C1.63859481,20.888515 2.5588469,15.5924317 2.76075627,14.0015284 C1.79918739,11.4504161 1.48417703,9.34612216 1.81572519,7.68864661 L2.27465578,3.61929032 C2.90433606,3.75367049 3.2191762,4.55937257 3.2191762,6.03639656 C3.2191762,8.25193256 3.69560443,7.97853189 4.05417022,7.68864661 C4.41273601,7.39876132 6.86716593,5.18718353 8.53806766,1.07363826 C8.89296366,0.26970357 9.2747105,-0.0507298839 9.68330818,0.1123379 C9.97952287,0.242644792 10.0944607,0.499806124 10.0281216,0.883821896 C10.4548894,0.213841041 10.8190354,-0.0752307633 11.1205597,0.0166064837 C11.5728462,0.154362354 11.7962729,0.771704422 11.4626146,1.52105505 C11.8289308,1.20213896 12.1565713,1.14277239 12.4455361,1.34295535 C12.8789833,1.64322979 12.7608671,2.18956584 12.5778688,2.56464139 C12.45587,2.81469175 12.2516527,3.26938731 11.965217,3.92872807 C12.5416796,3.44541963 12.9323167,3.28306042 13.1371282,3.44165044 C13.4443454,3.67953546 13.0848707,4.53286371 12.2095757,5.84883738 C11.3342807,7.16481106 9.4432788,13.3219833 6.86716593,14.3924051 C6.10946922,22.7382252 6.18495953,29.3329477 7.09363684,34.1765725 C5.48231918,35.5098826 3.97762109,36.0054189 2.57954255,35.6631814 C1.181464,35.3209438 0.321616487,33.3964761 3.27395317e-14,29.8897783 Z" id="path-1"></path>
        <path d="M27.8459779,-2.8469158e-14 C31.3901821,6.94301462 31.8241383,15.5907027 29.1478466,25.9430643 C25.133409,41.4716066 22.4850117,54.8440291 22.4850117,57.3329175 C22.4850117,58.3033357 22.0010857,63.0549544 21.0000823,70.7811656 C20.5667612,74.1257397 19.7622903,77.7127635 19.313732,82.3148747 C19.1224128,84.2777686 19.1224128,87.4652746 19.313732,91.8773927 L11.8835648,91.8773927 L11.8835648,74.6710605 C10.704404,84.4612123 10.1148236,90.1966563 10.1148236,91.8773927 L2.64605545,91.8773927 C2.8342058,82.671321 2.73891329,75.6392453 2.36017794,70.7811656 C1.79207491,63.4940459 4.44440102,55.0251463 4.44440102,53.0717519 C4.44440102,52.4409574 4.53890269,48.3459304 3.47752581,42.3760141 C1.25211496,29.8587672 -2.46949288,9.68162857 2.36017794,-2.8469158e-14 L27.8459779,-2.8469158e-14 Z" id="path-3"></path>
        <path d="M9.11013057e-14,1.82202611e-13 L9.11013057e-14,8.63593309 C1.30081594,11.8266596 2.24393401,13.7440413 2.82935422,14.3880782 C3.70748453,15.3541335 6.75415182,15.3541335 8.36589384,14.2029505 C9.97763586,13.0517675 6.77398087,12.6170768 5.7417334,7.73466363 C5.05356841,4.47972152 4.95499678,1.90150031 5.44601851,1.82202611e-13 L9.11013057e-14,1.82202611e-13 Z" id="path-5"></path>
        <path d="M0.27216506,-9.11013057e-14 L0.27216506,9.01430315 C4.23922488,13.1106511 7.99541108,14.9011243 11.5407237,14.3857226 C13.7275611,13.9362332 13.5017181,13.0680066 10.8631946,11.781043 C6.90540929,9.85059763 5.9772237,8.21740393 5.9772237,7.54549911 C5.9772237,7.09756257 5.9772237,4.5823962 5.9772237,-9.11013057e-14 L0.27216506,-9.11013057e-14 Z" id="path-7"></path>
        <path d="M28.5752958,2.56222422e-14 C24.3222982,0.851228423 21.4048655,1.47171035 19.8229978,1.86144579 C15.505751,2.92511503 13.1435579,2.38656137 11.424812,5.53548529 C9.29293459,9.44130968 -3.76751996,28.6367272 1.06473589,33.941356 L3.79109658,36.4482234 C4.11578111,34.6034493 4.50578645,33.3690121 4.9611126,32.7449116 C5.95020937,31.3891894 6.92470476,30.832474 9.09554753,30.5856091 L7.6186467,29.435149 C12.8898752,20.7565513 15.9318676,15.9859425 16.7446241,15.1233227 C19.6718116,23.0457404 20.9107479,28.5316829 20.4614328,31.5811502 C20.0121176,34.6306174 19.6628888,37.4363974 19.4137462,39.99849 C30.6182482,42.7317656 39.121749,42.7317656 44.9242488,39.99849 C41.6871552,28.4079511 40.7429155,21.0666478 42.0915299,17.97458 C42.8846812,16.4313364 43.3670049,14.8910313 43.538501,13.3536649 C50.7164383,21.6128938 56.0148266,25.2129879 59.4336657,24.1539471 C61.7357462,23.3740995 63.0396369,21.549903 63.3453377,18.6813576 C59.139063,18.8617881 56.7745174,17.4328567 56.2517008,14.3945635 C49.5770577,6.02361453 45.3393244,1.53675047 43.538501,0.933971309 C41.7376776,0.331192147 36.7499425,0.0198683773 28.5752958,2.56222422e-14 Z" id="path-9"></path>
        <path d="M3.79129597,0.159809805 C3.82566398,2.35648902 3.68349882,3.88757399 3.36480049,4.7530647 C3.04610217,5.61855541 2.0270892,6.63579145 0.307761605,7.80477281 C2.09194404,9.54649912 4.27370213,10.4173623 6.85303585,10.4173623 C9.43236957,10.4173623 11.6015166,9.17214621 13.3604768,6.6817141 C11.397529,6.4950998 10.253854,5.85221666 9.92945175,4.7530647 C9.60504949,3.65391274 9.52829908,2.12282777 9.69920051,0.159809805 L3.79129597,0.159809805 Z" id="path-11"></path>
        <path d="M0.120200334,0 C1.19235652,1.31093193 2.28121525,1.31093193 3.38677654,0 L0.120200334,0 Z" id="path-13"></path>
        <path d="M0.0723764834,6.04317013 C8.53969129,10.592565 13.0987428,13.4728289 13.7495311,14.6839617 C14.7257136,16.5006609 14.7257136,19.9692889 15.5810174,20.7133376 L20.6018201,16.5821072 L19.1733406,14.2894047 L21.3980681,15.8565611 L22.0628577,15.3193946 C21.1015503,13.5664101 19.9370282,12.3877548 18.5692914,11.7834286 C17.2015546,11.1791025 16.4360481,10.8364053 16.272772,10.7553372 L5.326722,0.170907288 C3.2528585,0.289664348 1.80564348,0.932518578 0.985076968,2.09946998 C0.164510452,3.26642138 -0.139723043,4.58098809 0.0723764834,6.04317013 Z" id="path-15"></path>
    </defs>
    <g id="iOS" stroke="none" stroke-width="1" fill="none" fill-rule="evenodd">
        <g id="News-empty" transform="translate(-219.000000, -257.000000)">
            <g id="Group-3" transform="translate(68.000000, 231.000000)">
                <g id="Woman" transform="translate(187.271285, 118.543406) scale(-1, 1) translate(-187.271285, -118.543406) translate(151.771285, 26.043406)">
                    <g id="Hnad" transform="translate(56.251701, 15.382973)">
                        <mask id="mask-2" fill="white">
                            <use xlink:href="#path-1"></use>
                        </mask>
                        <use id="Mask" fill="#FFC6CB" xlink:href="#path-1"></use>
                        <path d="M10.0580296,0.816736954 C9.48878876,2.50501876 8.79574441,4.01336087 7.97889656,5.34176329" id="Path-120" stroke="#FD9493" stroke-width="0.5" mask="url(#mask-2)"></path>
                        <path d="M11.4626146,1.52105505 C10.8298241,3.18411747 10.1000423,4.7332873 9.27326908,6.16856452" id="Path-128" stroke="#FD9493" stroke-width="0.5" mask="url(#mask-2)"></path>
                        <path d="M12.0508443,3.84480979 C11.1365234,5.54115875 10.6239516,6.48561178 10.5131288,6.67816887" id="Path-129" stroke="#FD9493" stroke-width="0.5" mask="url(#mask-2)"></path>
                        <path d="M7.54343797,4.98294309 C8.74246542,5.56415387 9.79345667,6.17707137 10.6964117,6.82169558" id="Path-130" stroke="#FD9493" stroke-width="0.5" mask="url(#mask-2)"></path>
                        <path d="M4.63761282,8.35726609 C5.67609633,9.37742327 6.0222575,10.5614189 5.67609633,11.9092529" id="Path-131" stroke="#FD9493" stroke-width="0.5" mask="url(#mask-2)"></path>
                    </g>
                    <g id="Pants" transform="translate(17.078271, 70.510068)">
                        <g id="Path-132" transform="translate(0.000000, 0.000000)">
                            <g id="Path-133" transform="translate(0.000000, 0.366610)">
                                <mask id="mask-4" fill="white">
                                    <use xlink:href="#path-3"></use>
                                </mask>
                                <use id="Mask" fill="#12348E" xlink:href="#path-3"></use>
                                <path d="M17.5429747,17.9629256 C18.4486504,34.8499505 17.8096733,48.3364684 15.6260434,58.4224794 C13.4424136,68.5084903 13.1010732,79.6601281 14.6020223,91.8773927 L11.4047337,91.8773927 L11.8835648,74.6710605 C12.6574782,66.4462798 13.1972685,61.5800803 13.502936,60.0724619 C13.8086034,58.5648435 14.5163059,55.0701246 15.6260434,49.5883051 L16.4793578,40.9202534 L17.1217708,30.2582823 L17.5429747,17.9629256 Z" id="Path-115" fill="#0B1F6E" mask="url(#mask-4)"></path>
                                <path d="M16.0398508,16.8310967 L17.5429747,17.9629256 C17.027076,36.5437166 16.1593207,48.1049865 14.9397086,52.6467353 C13.7200965,57.1884841 12.6272169,65.0574007 11.6610699,76.2534851" stroke="#0B1F6E" stroke-width="0.5" mask="url(#mask-4)"></path>
                                <line x1="17.5429747" y1="17.9629256" x2="18.9976028" y2="16.8310967" id="Path-134" stroke="#0B1F6E" stroke-width="0.5" mask="url(#mask-4)"></line>
                                <line x1="16.7363699" y1="2.44918064" x2="17.5429747" y2="14.5230175" id="Path-135" stroke="#0B1F6E" stroke-width="0.5" mask="url(#mask-4)"></line>
                                <path d="M0.703784923,2.59460437 C12.5074951,5.65855108 21.9981109,5.55178342 29.1756322,2.27430139 L27.9536416,-0.767277325 C22.2270749,1.36192397 13.4723001,1.36192397 1.68931734,-0.767277325 L0.703784923,2.59460437 Z" id="Path-132" fill="#1F2A54" mask="url(#mask-4)"></path>
                                <line x1="1.73177136" y1="11.7734231" x2="9.23747986" y2="5.5282363" id="Path-136" stroke="#0B1F6E" stroke-width="0.5" mask="url(#mask-4)"></line>
                                <line x1="25.1330589" y1="5.5282363" x2="29.1756322" y2="10.0114735" id="Path-137" stroke="#0B1F6E" stroke-width="0.5" mask="url(#mask-4)"></line>
                            </g>
                        </g>
                        <g id="Foot" transform="translate(3.097034, 92.244002)">
                            <path d="M1.20200334,8.63593309 C0.737450023,9.99012547 0.649335608,11.1941793 0.937660094,12.2480946 C1.37014682,13.8289676 2.57169687,16.8548821 3.4301619,17.8646185 C4.28862694,18.8743549 8.41256322,21.4807846 11.4179756,19.9325209 C13.4215838,18.9003452 12.953344,16.6369577 10.0132562,13.1423585 L1.20200334,8.63593309 Z" id="Path-124" fill="#022329"></path>
                            <path d="M21.5811051,12.7618257 C23.6126534,13.7340962 24.3921059,15.1042732 23.9194625,16.8723566 C23.2104975,19.5244817 15.3126051,16.61425 13.5409097,15.5431867 L12.3637004,15.1540266 L9.24106648,14.1217509 C7.99657713,13.2151341 7.99657713,11.5226655 9.24106648,9.04434515 L11.3701924,8.63593309 L21.5811051,12.7618257 Z" id="Path-126" fill="#022329"></path>
                            <g id="Path-142" transform="translate(1.202003, -0.000000)">
                                <mask id="mask-6" fill="white">
                                    <use xlink:href="#path-5"></use>
                                </mask>
                                <use id="Mask" fill="#FFC6CB" xlink:href="#path-5"></use>
                                <path d="M5.81578603,-8.72409783e-14 C2.53975468,-0.0662275176 0.901739007,0.380194659 0.901739007,1.33926653 C0.901739007,2.77787434 0.493699689,6.40916986 0.693667502,8.26918297 C0.893635314,10.1291961 2.43367535,13.8171059 5.03693182,15.0909982 C4.0014737,15.5274946 3.20865742,15.64932 2.658483,15.4564742 C2.10830858,15.2636285 1.07882434,12.9901148 -0.429969743,8.63593309 L-0.801335559,-8.72409783e-14 L5.81578603,-8.72409783e-14 Z" fill="#FD9493" mask="url(#mask-6)"></path>
                            </g>
                            <g id="Path-123" transform="translate(8.981399, 0.000000)">
                                <mask id="mask-8" fill="white">
                                    <use xlink:href="#path-7"></use>
                                </mask>
                                <use id="Mask" fill="#FFC6CB" xlink:href="#path-7"></use>
                                <path d="M5.64297461,-0.20033389 C2.5711883,0.102873986 1.03529515,0.882295354 1.03529515,2.13793021 C1.03529515,4.0213825 1.03185686,7.23606166 1.38432599,8.45380411 C1.73679512,9.67154655 5.13589453,12.8196185 10.1038842,14.4721233 C9.15014411,15.3332907 8.19919795,15.5817839 7.25104574,15.2176028 C6.30289353,14.8534218 3.75232235,12.9894526 -0.40066778,9.62569521 L-0.0199093418,-0.20033389 L4.30321324,-0.40066778 L5.64297461,-0.20033389 Z" fill="#FD9493" mask="url(#mask-8)"></path>
                            </g>
                            <path d="M0.853155234,10.4309805 L0.40066778,13.5638421 C0.360628126,13.9432431 0.412512515,14.1981436 0.556320948,14.3285438 C0.70012938,14.4589439 0.886977242,14.5068037 1.11686453,14.4721233 L1.69897931,13.109618 L0.853155234,10.4309805 Z" id="Path-144" fill="#022329"></path>
                        </g>
                    </g>
                    <g id="Body" transform="translate(0.000000, 30.878187)">
                        <mask id="mask-10" fill="white">
                            <use xlink:href="#path-9"></use>
                        </mask>
                        <use id="Mask" fill="#96B9FA" xlink:href="#path-9"></use>
                        <path d="M43.8595044,10.6450257 C43.5279092,16.5525103 41.5713018,20.0122429 37.9896821,21.0242234 C36.0763953,21.5648192 33.1572628,21.3832169 30.010094,21.5264743 C27.4488919,21.6430588 24.6924609,22.2298652 22.5628965,21.5264743 C19.3886599,20.4780302 17.9090021,17.4144288 16.7446241,15.1233227 C18.3449785,29.2367723 19.2602592,38.3448883 19.4904663,42.4476706 L46.7706189,41.8992844 L42.2113298,21.9845163 L44.2487911,14.851336 C50.7446947,21.0475838 54.7456646,24.1457076 56.2517008,24.1457076 C52.9072032,21.0892411 50.4472399,18.7028321 48.8718109,16.9864806 C47.6934185,15.7026806 46.0226496,13.5888623 43.8595044,10.6450257 Z" id="Path-117" fill="#759EF8" mask="url(#mask-10)"></path>
                        <line x1="18.8966689" y1="12.5085256" x2="15.7628603" y2="16.7104484" id="Path-138" stroke="#5C4644" stroke-width="0.5" mask="url(#mask-10)"></line>
                        <path d="M43.7236475,8.900586 C44.076379,10.4118846 43.997767,12.3431402 43.4878115,14.6943527" id="Path-139" stroke="#5C4644" stroke-width="0.5" mask="url(#mask-10)"></path>
                        <path d="M7.85393635,29.4636414 C6.12180726,28.9791153 4.38967817,29.2292759 2.65754908,30.2141233" id="Path-140" stroke="#5C4644" stroke-width="0.5" mask="url(#mask-10)"></path>
                        <path d="M56.2517008,14.3945635 C55.7458551,16.8370731 56.2443147,18.7964925 57.7470798,20.2728217" id="Path-141" stroke="#5C4644" stroke-width="0.5" mask="url(#mask-10)"></path>
                    </g>
                    <g id="Head-woman-2-" transform="translate(21.135405, 0.000000)">
                        <g id="Path-5" transform="translate(0.177589, 0.123098)">
                            <path d="M4.92012743,6.11571265 C3.75664501,5.5962062 3.21576273,4.79381568 3.29748058,3.70854111 C3.37919843,2.62326653 4.24943703,2.02643548 5.90819636,1.91804796 C6.83272909,0.357010443 8.16983268,-0.192094694 9.91950713,0.27073255 C12.5440188,0.964973414 12.2073858,4.21154207 11.4456746,6.11571265 L4.92012743,6.11571265 Z" id="Path-35" fill="#411F00"></path>
                            <path d="M2.63833554,20.4657837 C-0.631461662,15.9538365 -1.50492331,8.53204533 5.02904144,5.56602132 C8.38002523,4.61144643 11.018071,4.95370822 12.9431787,6.59280671 C15.8308403,9.05145444 16.0624146,15.9232319 13.7966508,19.6562384 C11.5308869,23.3892448 5.90813274,24.9777309 2.63833554,20.4657837 Z" id="Mask" fill="#512600"></path>
                            <path d="M4.40233017,5.90169066 C6.64025728,4.85504437 9.0347465,4.80329495 11.5857978,5.7464424" id="Path-36" stroke="#FFFFFF" stroke-width="0.5"></path>
                            <path d="M2.22237601,19.3824562 C1.62083926,25.3456211 3.14982094,28.358009 6.80932104,28.4196198 C12.2985712,28.512036 14.3669675,27.2874856 12.9262719,18.886061 C11.9658082,13.2851113 8.39784294,13.4505764 2.22237601,19.3824562 Z" id="Path-8" fill="#411F00"></path>
                        </g>
                        <g id="Face" transform="translate(0.598741, 13.122543)">
                            <g id="Path-31" transform="translate(0.559318, 11.183087)">
                                <mask id="mask-12" fill="white">
                                    <use xlink:href="#path-11"></use>
                                </mask>
                                <use id="Mask" fill="#FFC6CB" xlink:href="#path-11"></use>
                                <path d="M9.85886227,0.850982954 C8.19799856,2.73592888 6.05233113,3.99179824 3.42185998,4.61859104 C3.53979943,1.05962186 3.59876916,-0.719862724 3.59876916,-0.719862724 L9.95784718,-0.655112718 L9.85886227,0.850982954 Z" fill="#FD9493" mask="url(#mask-12)" transform="translate(6.689854, 1.949364) scale(-1, 1) translate(-6.689854, -1.949364) "></path>
                            </g>
                            <path d="M13.6268401,3.06532769 C14.1749649,2.87190443 14.5315462,2.93141438 14.6965841,3.24385753 C14.9263945,3.6789254 14.4912899,4.1845821 14.1815039,4.89382367 C13.8838961,5.57518409 14.0848861,6.50498297 13.3819301,6.29721924 C12.9119325,6.15830805 12.9935691,5.08101086 13.6268401,3.06532769 Z" id="Path-2" fill="#FFC6CB"></path>
                            <path d="M0.601918875,3.08392101 C1.19570817,2.8706571 1.57478569,2.92073975 1.73915145,3.23416897 C1.96802592,3.67060991 1.51282032,4.08956678 1.20429595,4.80104671 C0.907900039,5.48455749 1.10908113,6.31375099 0.439552381,6.31375099 C-0.0334174561,6.31375099 0.0207047085,5.23714099 0.601918875,3.08392101 Z" id="Path-2-Copy" fill="#FFC6CB" transform="translate(0.961236, 4.634071) scale(-1, 1) translate(-0.961236, -4.634071) "></path>
                            <path d="M2.43795413,0.921400353 C1.63207247,1.04288643 1.20843037,1.74361092 1.20954554,2.13738951 C1.23180008,9.4237751 4.81422694,12.7660225 7.24917165,12.7660225 C9.70134703,12.7660225 14.0954916,10.252492 13.6270639,2.09923714 C13.6052181,1.71899684 13.1471549,0.921400353 12.5691223,0.921400353 C12.1837672,0.921400353 11.4136304,0.921400353 10.2587117,0.921400353 L9.27593046,8.54074741e-15 L9.27593046,1.16135459 C5.25453402,0.920394383 2.97520857,0.840409636 2.43795413,0.921400353 Z" id="Path" fill="#FFC6CB"></path>
                            <g id="Group-11" transform="translate(3.908592, 2.503501)">
                                <path d="M2.65018075,4.82414101 C2.88639789,5.30034925 3.20006669,5.53845338 3.59118715,5.53845338 C3.98230761,5.53845338 4.24519007,5.30034925 4.37983453,4.82414101 C4.18385157,5.02125368 3.92096912,5.11981002 3.59118715,5.11981002 C3.26140518,5.11981002 2.94773638,5.02125368 2.65018075,4.82414101 Z" id="Path-6" fill="#FD9493"></path>
                                <circle id="Oval" fill="#352324" cx="5.53406929" cy="2.55177633" r="1"></circle>
                                <circle id="Oval-Copy-3" fill="#352324" cx="1.44725794" cy="2.55177633" r="1"></circle>
                                <path d="M0.143805976,0.254515792 C0.420042325,0.108367616 1.5288556,-2.27753264e-14 1.95461633,-2.27753264e-14 C2.38037706,-2.27753264e-14 2.34608436,0.435589912 2.01522163,0.374039748 C1.68435891,0.312489583 0.767892196,0.352909841 0.389420739,0.435589912 C0.0109492821,0.518269984 -0.132430372,0.400663968 0.143805976,0.254515792 Z" id="Path-44" fill="#553D3F"></path>
                                <path d="M4.71141866,0.254515792 C4.98765501,0.108367616 6.09646829,-2.27753264e-14 6.52222902,-2.27753264e-14 C6.94798974,-2.27753264e-14 6.91369705,0.435589912 6.58283432,0.374039748 C6.25197159,0.312489583 5.33550488,0.352909841 4.95703343,0.435589912 C4.57856197,0.518269984 4.43518232,0.400663968 4.71141866,0.254515792 Z" id="Path-44-Copy" fill="#553D3F" transform="translate(5.701982, 0.231472) scale(-1, 1) translate(-5.701982, -0.231472) "></path>
                                <g id="Rectangle" transform="translate(1.786573, 7.104409)">
                                    <mask id="mask-14" fill="white">
                                        <use xlink:href="#path-13"></use>
                                    </mask>
                                    <use id="Mask" fill="#8F4447" xlink:href="#path-13"></use>
                                    <path d="M-0.19222152,-0.806388975 L3.65418916,-0.806388975 L3.69684589,-0.10130913 C2.89702039,0.204637233 2.2795132,0.357610414 1.84432431,0.357610414 C1.40913542,0.357610414 0.744505721,0.204637233 -0.149564794,-0.10130913 L-0.19222152,-0.806388975 Z" fill="#FFFFFF" mask="url(#mask-14)"></path>
                                </g>
                            </g>
                        </g>
                        <path d="M1.67609771,15.5785818 C1.93513004,16.5711564 2.03691868,17.4281883 1.98146365,18.1496777 C1.74257024,21.2577645 1.27774763,21.9144337 1.55997701,22.8734366 C1.98146365,24.3056293 3.48448694,24.0972409 4.13170149,23.5992433" id="Path-6" stroke="#512600" stroke-width="0.5"></path>
                        <path d="M3.1478801,13.8481326 C2.33668656,14.3153173 2.0509009,15.0219038 2.29052311,15.9678922 C2.64995642,17.3868747 2.40746075,19.4240809 1.55872659,21.4843358 C-1.84297022e-14,25.2680577 2.9203384,25.8307085 4.57991879,24.1002083" id="Path-7" stroke="#512600" stroke-width="0.5"></path>
                        <path d="M12.3226684,15.5785818 C12.5817007,16.5711564 12.6834894,17.4281883 12.6280343,18.1496777 C12.3891409,21.2577645 11.9243183,21.9144337 12.2065477,22.8734366 C12.6280343,24.3056293 14.0443313,24.113688 14.6915459,23.6156904" id="Path-6-Copy" stroke="#512600" stroke-width="0.5" transform="translate(13.404967, 19.781096) scale(-1, 1) translate(-13.404967, -19.781096) "></path>
                        <path d="M13.7077245,13.8481326 C12.8965309,14.3153173 12.6107453,15.0219038 12.8503675,15.9678922 C13.2098008,17.3868747 12.9673051,19.4240809 12.118571,21.4843358 C10.5598444,25.2680577 13.4801828,25.8307085 15.1397632,24.1002083" id="Path-7-Copy" stroke="#512600" stroke-width="0.5" transform="translate(13.407332, 19.441444) scale(-1, 1) translate(-13.407332, -19.441444) "></path>
                        <g id="Group-4" transform="translate(1.443539, 15.889151)" stroke="#022329" stroke-width="0.5">
                            <ellipse id="Oval" cx="8.94956413" cy="2.18065845" rx="1.75322998" ry="1.75292154"></ellipse>
                            <ellipse id="Oval-Copy-2" cx="4.62962779" cy="2.18065845" rx="1.75322998" ry="1.75292154"></ellipse>
                            <line x1="6.28767699" y1="1.86746236" x2="7.19633415" y2="1.87400361" id="Path-19"></line>
                            <line x1="10.6748489" y1="1.87400361" x2="13.2480074" y2="-1.13876632e-14" id="Path-20"></line>
                            <line x1="-2.27753264e-14" y1="1.86746236" x2="2.92815943" y2="-1.13876632e-14" id="Path-20-Copy" transform="translate(1.464080, 0.933731) scale(-1, 1) translate(-1.464080, -0.933731) "></line>
                        </g>
                    </g>
                    <g id="Hand" transform="translate(3.718720, 61.283241)">
                        <mask id="mask-16" fill="white">
                            <use xlink:href="#path-15"></use>
                        </mask>
                        <use id="Mask" fill="#FFC6CB" xlink:href="#path-15"></use>
                    </g>
                </g>
            </g>
        </g>
    </g>
</svg>